<svg width="454" height="208" viewBox="0 0 454 208" fill="none" xmlns="http://www.w3.org/2000/svg">
<path d="M281.299 88.4991H254.522V95.054H281.299V88.4991Z" fill="#E22326"/>
<path d="M235.062 124.047L249.239 88.4991H242.174L231.057 116.357L219.947 88.4991H212.882L227.059 124.047H235.062Z" fill="#E22326"/>
<path d="M336.13 88.4991L321.953 124.047H329.018L340.135 96.1806L351.245 124.047H358.31L344.133 88.4991H336.13Z" fill="#E22326"/>
<path d="M281.299 103.059H254.522V109.613H281.299V103.059Z" fill="#E22326"/>
<path d="M281.299 117.618H254.522V124.173H281.299V117.618Z" fill="#E22326"/>
<path d="M297.234 117.752V88.633H290.674V117.752V124.307H297.234H316.071V117.752H297.234Z" fill="#E22326"/>
<path d="M90.6123 32.0182C90.6123 33.846 89.13 35.3193 87.3007 35.3193C85.4714 35.3193 83.997 33.8381 83.997 32.0182C83.997 30.1982 85.4793 28.7092 87.3007 28.7092C89.1221 28.7092 90.6123 30.1904 90.6123 32.0182Z" fill="#E22326"/>
<path d="M99.7824 30.9231C99.5537 32.7351 97.8979 34.0193 96.0844 33.7908C94.2709 33.5624 92.9857 31.9079 93.2143 30.0958C93.443 28.2838 95.0988 26.9996 96.9123 27.2281C98.7258 27.4565 100.011 29.111 99.7824 30.9231Z" fill="#E22326"/>
<path d="M109.016 30.9861C108.558 32.7509 106.76 33.8224 104.986 33.3654C103.22 32.9085 102.148 31.1122 102.605 29.3395C103.062 27.5747 104.86 26.5033 106.634 26.9602C108.4 27.4172 109.473 29.2135 109.016 30.9861Z" fill="#E22326"/>
<path d="M118.162 32.1994C117.492 33.8933 115.568 34.7284 113.873 34.0587C112.177 33.389 111.342 31.4667 112.012 29.7649C112.682 28.0711 114.606 27.2359 116.301 27.9056C117.996 28.5753 118.832 30.4976 118.162 32.1994Z" fill="#E22326"/>
<path d="M127.088 34.5551C126.204 36.1544 124.194 36.7374 122.593 35.8629C120.993 34.9805 120.409 32.9715 121.284 31.3722C122.167 29.7728 124.178 29.1898 125.779 30.0643C127.379 30.9467 127.963 32.9557 127.088 34.5551Z" fill="#E22326"/>
<path d="M135.65 38.0058C134.578 39.4791 132.504 39.81 131.03 38.7385C129.548 37.6671 129.224 35.595 130.297 34.1217C131.369 32.6485 133.443 32.3176 134.917 33.389C136.392 34.4605 136.723 36.5326 135.65 38.0058Z" fill="#E22326"/>
<path d="M143.709 42.5045C142.455 43.8359 140.366 43.8989 139.033 42.6541C137.7 41.4015 137.637 39.3137 138.883 37.9822C140.137 36.6507 142.226 36.5877 143.559 37.8325C144.891 39.0852 144.955 41.173 143.709 42.5045Z" fill="#E22326"/>
<path d="M151.136 47.9721C149.725 49.1381 147.643 48.9412 146.476 47.5309C145.309 46.1207 145.506 44.0408 146.918 42.8747C148.329 41.7087 150.411 41.9057 151.578 43.3159C152.745 44.7262 152.548 46.8061 151.136 47.9721Z" fill="#E22326"/>
<path d="M157.823 54.3301C156.277 55.307 154.235 54.85 153.257 53.3137C152.28 51.7696 152.737 49.729 154.274 48.7521C155.82 47.7752 157.862 48.2321 158.84 49.7684C159.817 51.3126 159.36 53.3531 157.823 54.3301Z" fill="#E22326"/>
<path d="M163.657 61.4837C162.001 62.2637 160.038 61.5547 159.258 59.9002C158.477 58.2457 159.187 56.2761 160.842 55.504C162.498 54.724 164.469 55.4331 165.242 57.0875C166.023 58.742 165.313 60.7117 163.657 61.4837Z" fill="#E22326"/>
<path d="M168.554 69.2992C166.819 69.8665 164.95 68.9132 164.383 67.1799C163.815 65.4466 164.769 63.5794 166.504 63.0122C168.238 62.4449 170.107 63.3982 170.675 65.1315C171.243 66.8648 170.288 68.732 168.554 69.2992Z" fill="#E22326"/>
<path d="M172.433 77.674C170.635 78.0128 168.909 76.8389 168.562 75.0426C168.223 73.2463 169.397 71.5209 171.187 71.1743C172.985 70.8276 174.712 72.0094 175.059 73.7978C175.398 75.5941 174.223 77.3195 172.425 77.6662L172.433 77.674Z" fill="#E22326"/>
<path d="M175.224 86.4664C173.403 86.5767 171.826 85.198 171.716 83.3781C171.597 81.5581 172.985 79.9824 174.806 79.8721C176.628 79.7618 178.205 81.1406 178.315 82.9605C178.433 84.7804 177.046 86.3561 175.224 86.4664Z" fill="#E22326"/>
<path d="M176.896 95.5346C175.075 95.4243 173.687 93.8486 173.805 92.0286C173.923 90.2087 175.492 88.8221 177.314 88.9403C179.135 89.0584 180.523 90.6263 180.405 92.4462C180.286 94.2661 178.717 95.6527 176.896 95.5346Z" fill="#E22326"/>
<path d="M177.408 104.745C175.611 104.406 174.436 102.672 174.783 100.876C175.122 99.0799 176.856 97.906 178.654 98.2448C180.452 98.5835 181.627 100.317 181.288 102.113C180.949 103.909 179.214 105.083 177.416 104.745H177.408Z" fill="#E22326"/>
<path d="M176.77 113.947C175.035 113.379 174.081 111.52 174.649 109.779C175.216 108.046 177.077 107.092 178.82 107.66C180.554 108.227 181.509 110.086 180.941 111.827C180.373 113.561 178.512 114.514 176.77 113.947Z" fill="#E22326"/>
<path d="M174.98 122.991C173.324 122.211 172.614 120.242 173.395 118.595C174.176 116.94 176.147 116.231 177.795 117.011C179.451 117.791 180.16 119.761 179.38 121.408C178.607 123.062 176.628 123.771 174.98 122.991Z" fill="#E22326"/>
<path d="M172.07 131.744C170.525 130.767 170.068 128.727 171.053 127.182C172.031 125.638 174.073 125.181 175.619 126.166C177.164 127.143 177.621 129.184 176.636 130.728C175.658 132.272 173.616 132.729 172.07 131.744Z" fill="#E22326"/>
<path d="M168.081 140.064C166.669 138.898 166.48 136.818 167.639 135.408C168.806 133.997 170.888 133.8 172.299 134.966C173.71 136.132 173.9 138.212 172.741 139.623C171.574 141.033 169.492 141.23 168.081 140.064Z" fill="#E22326"/>
<path d="M163.09 147.816C161.836 146.485 161.907 144.397 163.239 143.144C164.572 141.892 166.661 141.963 167.915 143.294C169.169 144.625 169.098 146.713 167.765 147.966C166.433 149.219 164.343 149.148 163.09 147.816Z" fill="#E22326"/>
<path d="M157.152 154.883C156.08 153.41 156.403 151.338 157.886 150.266C159.36 149.195 161.434 149.518 162.506 150.999C163.578 152.472 163.255 154.544 161.773 155.616C160.298 156.687 158.225 156.364 157.152 154.883Z" fill="#E22326"/>
<path d="M150.387 161.155C149.504 159.555 150.088 157.546 151.696 156.664C153.297 155.781 155.307 156.364 156.19 157.964C157.073 159.563 156.49 161.572 154.882 162.454C153.281 163.337 151.27 162.754 150.387 161.155Z" fill="#E22326"/>
<path d="M142.881 166.528C142.211 164.834 143.039 162.911 144.742 162.242C146.437 161.572 148.361 162.399 149.031 164.101C149.701 165.795 148.873 167.717 147.17 168.395C145.475 169.065 143.551 168.237 142.873 166.536L142.881 166.528Z" fill="#E22326"/>
<path d="M134.759 170.916C134.302 169.151 135.374 167.347 137.141 166.89C138.907 166.433 140.712 167.505 141.17 169.269C141.627 171.034 140.555 172.838 138.789 173.295C137.022 173.752 135.217 172.681 134.759 170.916Z" fill="#E22326"/>
<path d="M126.157 174.256C125.928 172.444 127.214 170.79 129.027 170.561C130.841 170.333 132.497 171.617 132.725 173.429C132.954 175.241 131.669 176.896 129.855 177.124C128.042 177.353 126.386 176.068 126.157 174.256Z" fill="#E22326"/>
<path d="M117.2 176.486C117.2 174.658 118.682 173.177 120.512 173.177C122.341 173.177 123.823 174.658 123.823 176.486C123.823 178.314 122.341 179.787 120.512 179.787C118.682 179.787 117.2 178.306 117.2 176.486Z" fill="#E22326"/>
<path d="M108.038 177.581C108.266 175.769 109.922 174.485 111.736 174.713C113.549 174.942 114.835 176.596 114.606 178.408C114.377 180.22 112.721 181.505 110.908 181.276C109.094 181.048 107.809 179.393 108.038 177.581Z" fill="#E22326"/>
<path d="M98.8047 177.526C99.262 175.761 101.06 174.69 102.834 175.147C104.6 175.604 105.672 177.4 105.215 179.173C104.758 180.937 102.96 182.009 101.186 181.552C99.4197 181.095 98.3474 179.299 98.8047 177.526Z" fill="#E22326"/>
<path d="M89.6583 176.305C90.3285 174.611 92.2524 173.776 93.9555 174.446C95.6507 175.115 96.4865 177.038 95.8163 178.731C95.1461 180.425 93.2222 181.26 91.5191 180.591C89.8239 179.921 88.9881 177.999 89.6583 176.305Z" fill="#E22326"/>
<path d="M80.7327 173.949C81.6158 172.35 83.6264 171.767 85.227 172.649C86.8276 173.532 87.4111 175.541 86.5359 177.14C85.6528 178.739 83.6422 179.322 82.0415 178.44C80.4409 177.558 79.8575 175.549 80.7327 173.949Z" fill="#E22326"/>
<path d="M72.1698 170.498C73.2421 169.025 75.3158 168.694 76.7903 169.766C78.2647 170.837 78.5959 172.909 77.5235 174.382C76.4512 175.864 74.3775 176.187 72.903 175.115C71.4286 174.044 71.0974 171.972 72.1698 170.498Z" fill="#E22326"/>
<path d="M64.1115 166C65.3652 164.668 67.4546 164.605 68.7872 165.85C70.1197 167.103 70.1828 169.191 68.937 170.522C67.6833 171.853 65.5938 171.917 64.2613 170.672C62.9287 169.419 62.8657 167.331 64.1115 166Z" fill="#E22326"/>
<path d="M56.6761 160.532C58.0875 159.366 60.1691 159.563 61.336 160.973C62.503 162.384 62.3058 164.463 60.8945 165.629C59.4831 166.796 57.4015 166.599 56.2345 165.188C55.0676 163.778 55.2647 161.698 56.6761 160.532Z" fill="#E22326"/>
<path d="M49.9897 154.174C51.5352 153.197 53.5773 153.654 54.5551 155.19C55.5328 156.727 55.0755 158.775 53.5379 159.752C51.9925 160.729 49.9503 160.272 48.9726 158.736C47.9949 157.192 48.4522 155.151 49.9897 154.174Z" fill="#E22326"/>
<path d="M44.155 147.028C45.8108 146.248 47.782 146.957 48.5547 148.612C49.3353 150.266 48.6257 152.236 46.9699 153.008C45.3141 153.788 43.3429 153.079 42.5701 151.425C41.7895 149.77 42.4992 147.8 44.155 147.028Z" fill="#E22326"/>
<path d="M39.2585 139.205C40.9932 138.638 42.8619 139.591 43.4296 141.324C43.9973 143.058 43.0432 144.925 41.3086 145.492C39.5739 146.059 37.7052 145.106 37.1375 143.373C36.5698 141.639 37.5238 139.772 39.2585 139.205Z" fill="#E22326"/>
<path d="M35.3871 130.838C37.1848 130.499 38.9116 131.673 39.2585 133.462C39.5976 135.258 38.4227 136.983 36.625 137.33C34.8272 137.669 33.1005 136.495 32.7535 134.699C32.4145 132.902 33.5893 131.177 35.3871 130.83V130.838Z" fill="#E22326"/>
<path d="M32.5958 122.046C34.4172 121.928 35.9942 123.314 36.1046 125.134C36.2229 126.954 34.8351 128.522 33.0137 128.64C31.1923 128.758 29.6154 127.372 29.505 125.552C29.3867 123.732 30.7744 122.156 32.5958 122.046Z" fill="#E22326"/>
<path d="M30.9243 112.978C32.7456 113.096 34.1334 114.664 34.0151 116.483C33.8968 118.303 32.3278 119.69 30.5064 119.572C28.685 119.454 27.2972 117.886 27.4155 116.066C27.5338 114.246 29.1029 112.859 30.9243 112.978Z" fill="#E22326"/>
<path d="M30.4039 103.768C32.2016 104.106 33.3764 105.84 33.0374 107.636C32.6983 109.432 30.9637 110.606 29.1659 110.267C27.3682 109.929 26.1934 108.195 26.5324 106.399C26.8715 104.603 28.6061 103.429 30.4039 103.768Z" fill="#E22326"/>
<path d="M31.0425 94.5655C32.7772 95.1328 33.7313 96.9921 33.1636 98.7332C32.5958 100.467 30.735 101.42 28.9925 100.853C27.2578 100.285 26.3038 98.426 26.8715 96.6848C27.4392 94.9516 29.3 93.9983 31.0425 94.5655Z" fill="#E22326"/>
<path d="M32.8324 85.5131C34.4882 86.2931 35.1978 88.2627 34.4172 89.9093C33.6366 91.5638 31.6654 92.2729 30.0175 91.4929C28.3617 90.7129 27.6521 88.7433 28.4327 87.0967C29.2133 85.4422 31.1845 84.7332 32.8324 85.5131Z" fill="#E22326"/>
<path d="M35.7498 76.7601C37.2952 77.7371 37.7525 79.7776 36.7669 81.3218C35.7892 82.8659 33.747 83.3229 32.2016 82.3381C30.6562 81.3612 30.1989 79.3206 31.1845 77.7764C32.1622 76.2323 34.2043 75.7753 35.7498 76.7601Z" fill="#E22326"/>
<path d="M39.7316 68.4483C41.1351 69.6143 41.3401 71.6943 40.1732 73.1045C39.0062 74.5148 36.9246 74.7117 35.5132 73.5457C34.1019 72.3797 33.9126 70.2998 35.0717 68.8895C36.2386 67.4871 38.3202 67.2823 39.7316 68.4483Z" fill="#E22326"/>
<path d="M44.7306 60.688C45.9843 62.0195 45.9133 64.1073 44.5808 65.36C43.2482 66.6126 41.1588 66.5417 39.9051 65.2103C38.6514 63.8788 38.7223 61.791 40.0549 60.5383C41.3874 59.2856 43.4769 59.3566 44.7306 60.688Z" fill="#E22326"/>
<path d="M50.66 53.621C51.7323 55.0943 51.409 57.1663 49.9267 58.2378C48.4443 59.3093 46.3785 58.9863 45.3062 57.5051C44.2338 56.0318 44.5571 53.9598 46.0395 52.8883C47.5139 51.8168 49.5876 52.1399 50.66 53.621Z" fill="#E22326"/>
<path d="M57.433 47.3497C58.3161 48.9491 57.7326 50.9581 56.1241 51.8405C54.5235 52.7229 52.5129 52.132 51.6298 50.5326C50.7467 48.9333 51.3381 46.9243 52.9387 46.0419C54.5393 45.1595 56.5499 45.7425 57.433 47.3497Z" fill="#E22326"/>
<path d="M64.9394 41.9845C65.6096 43.6784 64.7817 45.6007 63.0785 46.2783C61.3833 46.9479 59.4594 46.1207 58.7892 44.4189C58.119 42.7251 58.9469 40.8027 60.65 40.1252C62.3453 39.4555 64.2692 40.2827 64.9394 41.9845Z" fill="#E22326"/>
<path d="M73.0529 37.5962C73.5102 39.3609 72.4378 41.1651 70.6716 41.6221C68.9054 42.079 67.0998 41.0075 66.6425 39.2428C66.1852 37.478 67.2575 35.6738 69.0237 35.2169C70.7899 34.7599 72.5955 35.8314 73.0529 37.5962Z" fill="#E22326"/>
<path d="M81.6631 34.2557C81.8917 36.0677 80.6065 37.7222 78.793 37.9507C76.9795 38.1792 75.3237 36.895 75.095 35.0829C74.8663 33.2709 76.1516 31.6164 77.9651 31.3879C79.7786 31.1594 81.4344 32.4436 81.6631 34.2557Z" fill="#E22326"/>
<path d="M83.5318 25.0615C83.5318 26.519 82.3491 27.7086 80.8825 27.7086C79.4159 27.7086 78.2332 26.5269 78.2332 25.0615C78.2332 23.5961 79.4159 22.4143 80.8825 22.4143C82.3491 22.4143 83.5318 23.5961 83.5318 25.0615Z" fill="#E22326"/>
<path d="M93.6243 23.1312C93.443 24.5809 92.1183 25.6051 90.6675 25.4239C89.2167 25.2427 88.1917 23.9191 88.3731 22.4695C88.5544 21.0198 89.8791 19.9956 91.3299 20.1768C92.7807 20.358 93.8057 21.6816 93.6243 23.1312Z" fill="#E22326"/>
<path d="M103.882 22.4852C103.52 23.9033 102.077 24.7542 100.658 24.3918C99.2383 24.0294 98.3868 22.5876 98.7495 21.1695C99.1122 19.7514 100.555 18.9005 101.974 19.2629C103.394 19.6253 104.245 21.0671 103.882 22.4852Z" fill="#E22326"/>
<path d="M114.141 23.1313C113.604 24.4864 112.067 25.156 110.703 24.6203C109.347 24.0845 108.676 22.5482 109.221 21.1853C109.757 19.8302 111.294 19.1605 112.658 19.6962C114.014 20.232 114.685 21.7683 114.141 23.1313Z" fill="#E22326"/>
<path d="M124.233 25.0457C123.531 26.322 121.923 26.7948 120.638 26.0857C119.36 25.3845 118.887 23.7773 119.597 22.4931C120.299 21.2168 121.907 20.7441 123.192 21.4531C124.47 22.1543 124.943 23.7615 124.233 25.0457Z" fill="#E22326"/>
<path d="M134.01 28.2207C133.151 29.4025 131.495 29.6625 130.312 28.8038C129.13 27.945 128.869 26.2905 129.729 25.1087C130.588 23.927 132.244 23.667 133.427 24.5257C134.61 25.3845 134.87 27.039 134.01 28.2207Z" fill="#E22326"/>
<path d="M143.307 32.5854C142.305 33.649 140.634 33.7042 139.569 32.7036C138.505 31.703 138.45 30.0328 139.451 28.9692C140.452 27.9056 142.124 27.8505 143.188 28.851C144.253 29.8516 144.308 31.5218 143.307 32.5854Z" fill="#E22326"/>
<path d="M151.988 38.0846C150.86 39.0143 149.197 38.8567 148.258 37.7301C147.328 36.6035 147.486 34.9411 148.613 34.0036C149.741 33.0739 151.404 33.2315 152.343 34.3581C153.273 35.4847 153.115 37.1471 151.988 38.0846Z" fill="#E22326"/>
<path d="M159.904 44.6316C158.674 45.4116 157.034 45.0492 156.253 43.8123C155.473 42.5832 155.836 40.9445 157.073 40.1645C158.304 39.3846 159.944 39.747 160.724 40.9839C161.505 42.2208 161.142 43.8517 159.904 44.6316Z" fill="#E22326"/>
<path d="M166.945 52.1162C165.621 52.7386 164.044 52.1714 163.421 50.8478C162.798 49.5242 163.366 47.9485 164.69 47.3261C166.015 46.7037 167.592 47.2709 168.215 48.5945C168.838 49.9181 168.27 51.4938 166.945 52.1162Z" fill="#E22326"/>
<path d="M172.985 60.4201C171.597 60.8692 170.099 60.1129 169.65 58.7184C169.2 57.3318 169.957 55.8349 171.345 55.3858C172.733 54.9367 174.231 55.693 174.68 57.0797C175.13 58.4663 174.373 59.9632 172.985 60.4123V60.4201Z" fill="#E22326"/>
<path d="M177.945 69.4174C176.51 69.6931 175.122 68.7477 174.846 67.3138C174.57 65.8799 175.516 64.4933 176.951 64.2176C178.386 63.9418 179.774 64.8873 180.05 66.3211C180.326 67.755 179.38 69.1416 177.945 69.4174Z" fill="#E22326"/>
<path d="M181.729 78.9582C180.271 79.0528 179.017 77.9419 178.922 76.4844C178.828 75.0269 179.939 73.7742 181.398 73.6796C182.857 73.5851 184.111 74.696 184.205 76.1535C184.3 77.611 183.188 78.8637 181.729 78.9582Z" fill="#E22326"/>
<path d="M184.284 88.9088C182.825 88.8142 181.714 87.5615 181.808 86.104C181.903 84.6465 183.156 83.5435 184.615 83.6302C186.074 83.7247 187.186 84.9774 187.091 86.4349C186.996 87.8924 185.743 89.0033 184.284 88.9088Z" fill="#E22326"/>
<path d="M185.577 99.0956C184.142 98.8199 183.196 97.4412 183.472 95.9994C183.748 94.5655 185.136 93.6201 186.571 93.8958C188.006 94.1716 188.952 95.5582 188.676 96.9921C188.4 98.426 187.012 99.3714 185.577 99.0956Z" fill="#E22326"/>
<path d="M185.585 109.361C184.197 108.912 183.432 107.415 183.89 106.029C184.339 104.642 185.837 103.878 187.225 104.335C188.613 104.784 189.378 106.281 188.92 107.667C188.471 109.054 186.973 109.818 185.585 109.369V109.361Z" fill="#E22326"/>
<path d="M184.3 119.548C182.975 118.926 182.407 117.35 183.03 116.027C183.653 114.703 185.23 114.136 186.555 114.758C187.879 115.38 188.447 116.956 187.824 118.28C187.201 119.603 185.624 120.171 184.3 119.548Z" fill="#E22326"/>
<path d="M181.745 129.499C180.515 128.719 180.144 127.08 180.933 125.851C181.714 124.614 183.354 124.252 184.584 125.032C185.822 125.812 186.184 127.45 185.404 128.679C184.623 129.908 182.983 130.279 181.753 129.499H181.745Z" fill="#E22326"/>
<path d="M177.96 139.047C176.833 138.118 176.675 136.448 177.606 135.321C178.536 134.194 180.208 134.037 181.335 134.966C182.463 135.896 182.62 137.566 181.69 138.693C180.759 139.82 179.088 139.977 177.96 139.047Z" fill="#E22326"/>
<path d="M173.017 148.045C172.015 146.981 172.07 145.303 173.135 144.31C174.199 143.31 175.871 143.365 176.872 144.428C177.874 145.492 177.818 147.162 176.754 148.163C175.69 149.163 174.018 149.108 173.017 148.045Z" fill="#E22326"/>
<path d="M166.977 156.357C166.117 155.175 166.378 153.52 167.56 152.661C168.743 151.803 170.399 152.063 171.258 153.244C172.118 154.426 171.858 156.081 170.675 156.94C169.492 157.798 167.836 157.538 166.977 156.357Z" fill="#E22326"/>
<path d="M159.944 163.841C159.242 162.557 159.707 160.95 160.984 160.248C162.262 159.547 163.878 160.012 164.58 161.288C165.282 162.565 164.816 164.18 163.539 164.881C162.262 165.582 160.645 165.117 159.944 163.841Z" fill="#E22326"/>
<path d="M152.027 170.388C151.491 169.033 152.153 167.497 153.51 166.953C154.866 166.417 156.403 167.079 156.947 168.434C157.483 169.789 156.821 171.326 155.465 171.869C154.109 172.405 152.571 171.743 152.027 170.388Z" fill="#E22326"/>
<path d="M143.354 175.895C142.991 174.485 143.843 173.043 145.262 172.673C146.681 172.31 148.116 173.161 148.487 174.579C148.85 175.998 147.998 177.431 146.579 177.802C145.16 178.164 143.724 177.313 143.354 175.895Z" fill="#E22326"/>
<path d="M134.058 180.268C133.876 178.818 134.901 177.494 136.352 177.313C137.803 177.132 139.128 178.156 139.309 179.606C139.49 181.056 138.465 182.379 137.015 182.56C135.564 182.742 134.239 181.717 134.058 180.268Z" fill="#E22326"/>
<path d="M124.288 183.443C124.288 181.985 125.471 180.796 126.938 180.796C128.404 180.796 129.587 181.977 129.587 183.443C129.587 184.908 128.404 186.09 126.938 186.09C125.471 186.09 124.288 184.908 124.288 183.443Z" fill="#E22326"/>
<path d="M114.196 185.373C114.377 183.923 115.702 182.899 117.153 183.08C118.603 183.262 119.628 184.585 119.447 186.035C119.266 187.484 117.941 188.509 116.49 188.327C115.04 188.146 114.014 186.823 114.196 185.373Z" fill="#E22326"/>
<path d="M103.938 186.019C104.3 184.609 105.743 183.75 107.163 184.112C108.574 184.475 109.433 185.917 109.071 187.335C108.708 188.753 107.265 189.604 105.846 189.241C104.427 188.879 103.575 187.437 103.938 186.019Z" fill="#E22326"/>
<path d="M93.6795 185.381C94.2157 184.026 95.7532 183.356 97.1173 183.892C98.4735 184.428 99.1437 185.964 98.6075 187.327C98.0714 188.682 96.5338 189.352 95.1698 188.816C93.8136 188.28 93.1434 186.744 93.6874 185.381H93.6795Z" fill="#E22326"/>
<path d="M83.587 183.459C84.2887 182.182 85.8972 181.709 87.1824 182.419C88.4677 183.12 88.9329 184.727 88.2311 186.011C87.5294 187.287 85.9209 187.76 84.6356 187.051C83.3583 186.35 82.8852 184.743 83.5948 183.459H83.587Z" fill="#E22326"/>
<path d="M73.8098 180.291C74.6692 179.11 76.3251 178.85 77.5078 179.708C78.6905 180.567 78.9507 182.222 78.0912 183.403C77.2318 184.585 75.576 184.845 74.3933 183.986C73.2105 183.128 72.9503 181.473 73.8098 180.291Z" fill="#E22326"/>
<path d="M64.5057 175.919C65.5071 174.855 67.1787 174.8 68.2431 175.801C69.3076 176.801 69.3627 178.471 68.3614 179.535C67.36 180.599 65.6884 180.654 64.624 179.653C63.5595 178.653 63.5043 176.982 64.5057 175.919Z" fill="#E22326"/>
<path d="M55.8324 170.42C56.9599 169.49 58.6236 169.648 59.5619 170.774C60.4923 171.901 60.3346 173.563 59.2071 174.501C58.0796 175.43 56.4159 175.273 55.4776 174.146C54.5472 173.019 54.7049 171.357 55.8324 170.42Z" fill="#E22326"/>
<path d="M47.9082 163.88C49.1382 163.1 50.7782 163.463 51.5588 164.7C52.3394 165.937 51.9767 167.568 50.7388 168.348C49.5088 169.128 47.8687 168.765 47.0881 167.528C46.3075 166.291 46.6702 164.66 47.9082 163.88Z" fill="#E22326"/>
<path d="M40.8749 156.396C42.1996 155.774 43.7765 156.341 44.3994 157.664C45.0223 158.988 44.4546 160.564 43.13 161.186C41.8053 161.808 40.2284 161.241 39.6055 159.918C38.9826 158.594 39.5503 157.018 40.8749 156.396Z" fill="#E22326"/>
<path d="M34.8272 148.092C36.215 147.643 37.7131 148.399 38.1625 149.794C38.612 151.18 37.855 152.677 36.4673 153.126C35.0796 153.575 33.5814 152.819 33.132 151.432C32.6826 150.046 33.4395 148.549 34.8351 148.1L34.8272 148.092Z" fill="#E22326"/>
<path d="M29.8756 139.095C31.3106 138.819 32.6983 139.764 32.9743 141.198C33.2503 142.632 32.3041 144.019 30.8691 144.295C29.434 144.57 28.0463 143.625 27.7703 142.191C27.4944 140.757 28.4405 139.37 29.8756 139.095Z" fill="#E22326"/>
<path d="M26.0909 129.546C27.5495 129.451 28.8032 130.562 28.8979 132.02C28.9925 133.477 27.8807 134.73 26.422 134.825C24.9633 134.919 23.7096 133.808 23.615 132.351C23.5204 130.893 24.6322 129.641 26.0909 129.546Z" fill="#E22326"/>
<path d="M23.5283 119.603C24.987 119.698 26.0909 120.951 26.0041 122.408C25.9095 123.866 24.6558 124.976 23.1971 124.882C21.7384 124.787 20.6346 123.535 20.7213 122.077C20.8159 120.62 22.0696 119.509 23.5283 119.603Z" fill="#E22326"/>
<path d="M22.2352 109.416C23.6702 109.692 24.6164 111.079 24.3404 112.513C24.0645 113.947 22.6767 114.892 21.2417 114.616C19.8067 114.341 18.8605 112.962 19.1365 111.52C19.4124 110.086 20.8002 109.141 22.2352 109.416Z" fill="#E22326"/>
<path d="M22.2352 99.1508C23.6229 99.5999 24.3877 101.097 23.9304 102.483C23.481 103.87 21.9829 104.634 20.5951 104.185C19.2074 103.736 18.4426 102.239 18.892 100.853C19.3415 99.4659 20.8396 98.7017 22.2273 99.1587L22.2352 99.1508Z" fill="#E22326"/>
<path d="M23.5204 88.956C24.8451 89.5784 25.4128 91.1541 24.7899 92.4777C24.167 93.8013 22.59 94.3685 21.2654 93.7461C19.9407 93.1237 19.373 91.548 19.9959 90.2245C20.6188 88.9009 22.1958 88.3336 23.5204 88.956Z" fill="#E22326"/>
<path d="M26.0751 79.0134C27.3051 79.7933 27.6757 81.4321 26.8872 82.6611C26.1066 83.8902 24.4666 84.2604 23.2366 83.4726C21.9986 82.6926 21.6359 81.0539 22.4244 79.8249C23.205 78.5879 24.8451 78.2255 26.0751 79.0055V79.0134Z" fill="#E22326"/>
<path d="M29.8519 69.4647C30.9794 70.3943 31.1371 72.0646 30.2067 73.1912C29.2763 74.3178 27.6047 74.4754 26.4772 73.5457C25.3497 72.6161 25.192 70.9458 26.1224 69.8192C27.0528 68.6926 28.7244 68.535 29.8519 69.4647Z" fill="#E22326"/>
<path d="M34.8036 60.4674C35.805 61.531 35.7498 63.2013 34.6853 64.2018C33.6209 65.2024 31.9493 65.1472 30.9479 64.0836C29.9465 63.02 30.0017 61.3419 31.0662 60.3492C32.1306 59.3487 33.8022 59.4038 34.8036 60.4674Z" fill="#E22326"/>
<path d="M40.8355 52.1556C41.6949 53.3374 41.4347 54.9919 40.252 55.8506C39.0693 56.7094 37.4135 56.4494 36.554 55.2676C35.6946 54.0858 35.9548 52.4314 37.1375 51.5726C38.3202 50.7138 39.976 50.9738 40.8355 52.1556Z" fill="#E22326"/>
<path d="M47.8687 44.6632C48.5705 45.9395 48.1053 47.5546 46.8279 48.2557C45.5427 48.9569 43.9342 48.4921 43.2325 47.2158C42.5307 45.9395 42.9959 44.3244 44.2733 43.6232C45.5506 42.922 47.1591 43.3868 47.8687 44.6632Z" fill="#E22326"/>
<path d="M55.7851 38.1161C56.3213 39.4712 55.6589 41.0075 54.2949 41.5512C52.9387 42.0869 51.4011 41.4251 50.8571 40.0621C50.3209 38.707 50.9832 37.1707 52.3473 36.6271C53.7035 36.0914 55.241 36.7532 55.7851 38.1161Z" fill="#E22326"/>
<path d="M64.4584 32.6169C64.8211 34.0351 63.9695 35.4768 62.5503 35.8392C61.131 36.2017 59.696 35.3508 59.3254 33.9327C58.9627 32.5224 59.8142 31.0806 61.2335 30.7182C62.6528 30.3558 64.0878 31.2067 64.4584 32.6169Z" fill="#E22326"/>
<path d="M73.7625 28.2365C73.9438 29.6862 72.9188 31.0097 71.468 31.1909C70.0172 31.3721 68.6925 30.3479 68.5112 28.8983C68.3298 27.4487 69.3549 26.1251 70.8057 25.9439C72.2565 25.7627 73.5811 26.7869 73.7625 28.2365Z" fill="#E22326"/>
<path d="M98.2448 14.3861C98.3868 15.4734 97.6141 16.466 96.526 16.6C95.4379 16.7339 94.4444 15.9697 94.3103 14.8825C94.1684 13.7952 94.9411 12.8025 96.0292 12.6686C97.1173 12.5347 98.1108 13.2989 98.2448 14.3861Z" fill="#E22326"/>
<path d="M109.567 14.3546C109.567 15.4497 108.676 16.34 107.58 16.34C106.484 16.34 105.593 15.4497 105.593 14.3546C105.593 13.2595 106.484 12.3692 107.58 12.3692C108.676 12.3692 109.567 13.2595 109.567 14.3546Z" fill="#E22326"/>
<path d="M120.795 15.7412C120.661 16.8285 119.668 17.6005 118.58 17.4587C117.492 17.3248 116.719 16.3321 116.861 15.2449C116.995 14.1576 117.988 13.3856 119.077 13.5274C120.165 13.6613 120.937 14.654 120.795 15.7412Z" fill="#E22326"/>
<path d="M131.771 18.5223C131.495 19.5859 130.415 20.2241 129.358 19.9483C128.294 19.6726 127.655 18.5932 127.931 17.5375C128.199 16.4739 129.287 15.8358 130.344 16.1115C131.408 16.3794 132.047 17.4666 131.771 18.5223Z" fill="#E22326"/>
<path d="M142.305 22.6585C141.903 23.6749 140.752 24.1712 139.727 23.7694C138.71 23.3676 138.213 22.2173 138.615 21.1931C139.017 20.1768 140.168 19.6726 141.193 20.0823C142.211 20.4841 142.715 21.6343 142.305 22.6585Z" fill="#E22326"/>
<path d="M152.24 28.0789C151.712 29.0401 150.505 29.3868 149.543 28.8589C148.582 28.3311 148.235 27.1256 148.763 26.1645C149.291 25.2033 150.498 24.8566 151.459 25.3845C152.421 25.9124 152.768 27.1178 152.24 28.0789Z" fill="#E22326"/>
<path d="M161.41 34.7048C160.764 35.5871 159.526 35.7841 158.635 35.1459C157.752 34.4999 157.554 33.263 158.193 32.3727C158.84 31.4903 160.078 31.2934 160.969 31.9315C161.852 32.5776 162.049 33.8145 161.41 34.7048Z" fill="#E22326"/>
<path d="M169.689 42.4178C168.94 43.2135 167.686 43.2529 166.882 42.5044C166.086 41.756 166.046 40.5033 166.795 39.6997C167.545 38.904 168.798 38.8646 169.602 39.613C170.399 40.3615 170.438 41.6142 169.689 42.4178Z" fill="#E22326"/>
<path d="M176.927 51.1156C176.084 51.8168 174.83 51.6986 174.136 50.8478C173.434 50.0048 173.553 48.7521 174.396 48.0588C175.24 47.3576 176.494 47.4758 177.188 48.3188C177.889 49.1618 177.771 50.4144 176.92 51.1078L176.927 51.1156Z" fill="#E22326"/>
<path d="M183.015 60.6486C182.092 61.2395 180.862 60.9638 180.279 60.0341C179.695 59.1123 179.963 57.8833 180.894 57.3003C181.816 56.7094 183.046 56.9851 183.63 57.9148C184.213 58.8366 183.945 60.0656 183.015 60.6486Z" fill="#E22326"/>
<path d="M187.864 70.867C186.87 71.3319 185.688 70.9064 185.222 69.9137C184.757 68.921 185.183 67.7393 186.176 67.2744C187.17 66.8096 188.353 67.235 188.818 68.2277C189.283 69.2204 188.857 70.4022 187.864 70.867Z" fill="#E22326"/>
<path d="M191.396 81.6133C190.355 81.952 189.236 81.3848 188.897 80.337C188.558 79.297 189.125 78.1782 190.174 77.8395C191.215 77.5007 192.334 78.0679 192.673 79.1158C193.012 80.1557 192.445 81.2745 191.396 81.6133Z" fill="#E22326"/>
<path d="M193.549 92.7141C192.476 92.9189 191.436 92.2098 191.231 91.1384C191.026 90.059 191.727 89.0269 192.807 88.8221C193.888 88.6173 194.921 89.3184 195.126 90.3978C195.331 91.4693 194.629 92.5092 193.549 92.7141Z" fill="#E22326"/>
<path d="M194.29 104.004C193.194 104.075 192.256 103.24 192.185 102.153C192.114 101.057 192.949 100.12 194.038 100.049C195.133 99.978 196.072 100.813 196.143 101.9C196.214 102.995 195.378 103.933 194.29 104.004Z" fill="#E22326"/>
<path d="M193.612 115.294C192.516 115.223 191.688 114.285 191.759 113.19C191.83 112.095 192.768 111.268 193.864 111.339C194.96 111.41 195.788 112.347 195.717 113.442C195.646 114.537 194.708 115.365 193.612 115.294Z" fill="#E22326"/>
<path d="M191.522 126.41C190.442 126.206 189.74 125.166 189.945 124.094C190.15 123.023 191.191 122.314 192.263 122.518C193.344 122.723 194.045 123.763 193.84 124.835C193.635 125.914 192.595 126.615 191.522 126.41Z" fill="#E22326"/>
<path d="M188.053 137.172C187.012 136.834 186.437 135.715 186.776 134.675C187.115 133.635 188.234 133.06 189.275 133.399C190.316 133.737 190.884 134.856 190.552 135.896C190.213 136.936 189.094 137.511 188.053 137.172Z" fill="#E22326"/>
<path d="M183.259 147.422C182.265 146.957 181.84 145.776 182.305 144.783C182.77 143.79 183.953 143.365 184.946 143.83C185.94 144.295 186.366 145.476 185.9 146.469C185.435 147.462 184.252 147.887 183.259 147.422Z" fill="#E22326"/>
<path d="M177.219 156.987C176.297 156.404 176.021 155.175 176.604 154.253C177.196 153.331 178.418 153.055 179.34 153.638C180.263 154.221 180.539 155.45 179.955 156.372C179.372 157.294 178.142 157.57 177.219 156.987Z" fill="#E22326"/>
<path d="M170.028 165.724C169.185 165.023 169.066 163.778 169.768 162.935C170.47 162.092 171.716 161.974 172.559 162.675C173.403 163.376 173.521 164.621 172.819 165.464C172.118 166.307 170.872 166.425 170.028 165.724Z" fill="#E22326"/>
<path d="M161.804 173.484C161.055 172.689 161.095 171.428 161.891 170.68C162.687 169.931 163.949 169.971 164.698 170.766C165.447 171.562 165.408 172.823 164.611 173.571C163.815 174.319 162.553 174.28 161.804 173.484Z" fill="#E22326"/>
<path d="M152.666 180.157C152.019 179.275 152.216 178.03 153.107 177.384C153.991 176.738 155.236 176.935 155.883 177.825C156.529 178.708 156.332 179.953 155.441 180.599C154.558 181.245 153.312 181.048 152.666 180.157Z" fill="#E22326"/>
<path d="M142.763 185.633C142.234 184.672 142.581 183.466 143.543 182.939C144.505 182.411 145.711 182.757 146.24 183.719C146.768 184.68 146.413 185.885 145.459 186.413C144.497 186.941 143.291 186.594 142.763 185.633Z" fill="#E22326"/>
<path d="M132.244 189.824C131.842 188.808 132.339 187.658 133.356 187.248C134.373 186.846 135.524 187.343 135.934 188.359C136.336 189.375 135.84 190.526 134.823 190.935C133.805 191.337 132.646 190.841 132.244 189.824Z" fill="#E22326"/>
<path d="M121.292 192.668C121.016 191.605 121.663 190.526 122.719 190.258C123.784 189.982 124.864 190.628 125.132 191.684C125.408 192.747 124.761 193.827 123.705 194.094C122.64 194.37 121.56 193.724 121.292 192.668Z" fill="#E22326"/>
<path d="M110.064 194.118C109.93 193.031 110.695 192.038 111.783 191.904C112.871 191.77 113.865 192.535 113.999 193.622C114.141 194.709 113.368 195.702 112.28 195.836C111.192 195.97 110.198 195.205 110.064 194.118Z" fill="#E22326"/>
<path d="M98.7495 194.15C98.7495 193.055 99.6405 192.164 100.736 192.164C101.832 192.164 102.723 193.055 102.723 194.15C102.723 195.245 101.832 196.135 100.736 196.135C99.6405 196.135 98.7495 195.245 98.7495 194.15Z" fill="#E22326"/>
<path d="M87.5136 192.763C87.6476 191.676 88.6411 190.904 89.7292 191.045C90.8173 191.179 91.5901 192.172 91.4481 193.259C91.3141 194.347 90.3206 195.119 89.2325 194.977C88.1444 194.843 87.3796 193.85 87.5136 192.763Z" fill="#E22326"/>
<path d="M76.5458 189.982C76.8218 188.918 77.902 188.28 78.9586 188.556C80.023 188.832 80.6617 189.911 80.3857 190.967C80.1098 192.03 79.0295 192.668 77.973 192.393C76.9085 192.117 76.2699 191.038 76.5458 189.982Z" fill="#E22326"/>
<path d="M66.0038 185.854C66.406 184.837 67.5571 184.333 68.5822 184.743C69.5993 185.145 70.0961 186.295 69.6939 187.319C69.2918 188.335 68.1406 188.832 67.1156 188.43C66.0985 188.028 65.5938 186.878 66.0038 185.854Z" fill="#E22326"/>
<path d="M56.069 180.433C56.5972 179.472 57.8036 179.125 58.7656 179.653C59.7275 180.181 60.0744 181.386 59.5462 182.348C59.0179 183.309 57.8115 183.655 56.8495 183.128C55.8876 182.6 55.5407 181.394 56.069 180.433Z" fill="#E22326"/>
<path d="M46.8989 173.807C47.5455 172.925 48.7834 172.728 49.6744 173.366C50.5575 174.012 50.7546 175.249 50.1159 176.139C49.4693 177.03 48.2314 177.219 47.3404 176.581C46.4573 175.935 46.2602 174.698 46.8989 173.807Z" fill="#E22326"/>
<path d="M38.6277 166.086C39.3768 165.291 40.6305 165.251 41.4347 166C42.2311 166.748 42.2705 168.009 41.5215 168.805C40.7724 169.6 39.5187 169.64 38.7145 168.891C37.9181 168.143 37.8787 166.89 38.6277 166.086Z" fill="#E22326"/>
<path d="M31.3816 157.396C32.2253 156.695 33.4789 156.813 34.1728 157.656C34.8746 158.499 34.7563 159.752 33.9126 160.445C33.0689 161.147 31.8152 161.028 31.1214 160.185C30.4196 159.342 30.5379 158.09 31.3895 157.396H31.3816Z" fill="#E22326"/>
<path d="M25.2945 147.863C26.217 147.28 27.447 147.548 28.0305 148.478C28.614 149.4 28.3459 150.629 27.4155 151.212C26.493 151.803 25.2629 151.527 24.6795 150.597C24.096 149.676 24.3641 148.446 25.2945 147.863Z" fill="#E22326"/>
<path d="M20.4453 137.645C21.4388 137.18 22.6215 137.606 23.0867 138.598C23.5519 139.591 23.1262 140.773 22.1327 141.238C21.1392 141.703 19.9565 141.277 19.4913 140.284C19.0261 139.292 19.4518 138.11 20.4453 137.645Z" fill="#E22326"/>
<path d="M16.9129 126.891C17.9537 126.552 19.0734 127.119 19.4124 128.167C19.7515 129.207 19.1838 130.326 18.1351 130.665C17.0943 131.004 15.9746 130.436 15.6356 129.388C15.2966 128.348 15.8643 127.23 16.9129 126.891Z" fill="#E22326"/>
<path d="M14.7683 115.79C15.8485 115.585 16.8814 116.294 17.0864 117.366C17.2914 118.445 16.5818 119.477 15.5094 119.682C14.4292 119.887 13.3963 119.178 13.1913 118.106C12.9863 117.035 13.6959 115.995 14.7683 115.79Z" fill="#E22326"/>
<path d="M14.0271 104.508C15.1231 104.437 16.0614 105.272 16.1323 106.36C16.2033 107.455 15.3675 108.392 14.2794 108.463C13.1834 108.534 12.2451 107.699 12.1742 106.612C12.1032 105.517 12.939 104.579 14.0271 104.508Z" fill="#E22326"/>
<path d="M14.7052 93.2183C15.8012 93.2892 16.6291 94.2267 16.5581 95.3218C16.4872 96.417 15.5489 97.2442 14.4529 97.1733C13.3569 97.1024 12.529 96.1648 12.5999 95.0697C12.6709 93.9746 13.6092 93.1474 14.7052 93.2183Z" fill="#E22326"/>
<path d="M16.7947 82.1017C17.867 82.3066 18.5766 83.3465 18.3716 84.418C18.1666 85.4974 17.1258 86.1986 16.0535 85.9937C14.9733 85.7889 14.2715 84.7489 14.4765 83.6774C14.6815 82.5981 15.7223 81.8969 16.7947 82.1017Z" fill="#E22326"/>
<path d="M20.2561 71.3318C21.2969 71.6706 21.8725 72.7894 21.5334 73.8293C21.1944 74.8693 20.0747 75.4444 19.0339 75.1056C17.9932 74.7669 17.4176 73.6481 17.7566 72.6082C18.0957 71.5682 19.2153 70.9931 20.2561 71.3318Z" fill="#E22326"/>
<path d="M25.0501 61.0898C26.0436 61.5547 26.4693 62.7364 26.0041 63.7291C25.5389 64.7218 24.3562 65.1472 23.3627 64.6824C22.3692 64.2176 21.9434 63.0358 22.4087 62.0431C22.8739 61.0504 24.0566 60.625 25.0501 61.0898Z" fill="#E22326"/>
<path d="M31.0898 51.5253C32.0124 52.1083 32.2883 53.3374 31.7049 54.2592C31.1214 55.1809 29.8914 55.4567 28.9688 54.8737C28.0463 54.2828 27.7703 53.0616 28.3538 52.1398C28.9452 51.2181 30.1673 50.9423 31.0898 51.5253Z" fill="#E22326"/>
<path d="M38.2808 42.7881C39.1245 43.4893 39.2428 44.7341 38.541 45.5771C37.8393 46.4201 36.5935 46.5382 35.7498 45.8371C34.9061 45.1359 34.7878 43.8911 35.4817 43.0481C36.1834 42.2051 37.4292 42.0869 38.2729 42.7881H38.2808Z" fill="#E22326"/>
<path d="M46.5047 35.0199C47.2537 35.8156 47.2143 37.0762 46.4179 37.8246C45.6216 38.5731 44.36 38.5337 43.6109 37.738C42.8619 36.9422 42.9013 35.6817 43.6977 34.9332C44.494 34.1848 45.7556 34.2242 46.5047 35.0199Z" fill="#E22326"/>
<path d="M55.6432 28.3468C56.2897 29.2371 56.0926 30.474 55.2016 31.12C54.3185 31.7661 53.0727 31.5691 52.4262 30.6788C51.7796 29.7964 51.9767 28.5516 52.8677 27.9056C53.7587 27.2596 54.9966 27.4565 55.6432 28.3468Z" fill="#E22326"/>
<path d="M65.5544 22.8713C66.0827 23.8324 65.7357 25.0378 64.7738 25.5657C63.8119 26.0936 62.6055 25.739 62.0772 24.7857C61.5489 23.8246 61.9037 22.6192 62.8578 22.0913C63.8197 21.5634 65.0261 21.918 65.5544 22.8713Z" fill="#E22326"/>
<path d="M76.0648 18.6799C76.467 19.6962 75.9702 20.8544 74.9531 21.2562C73.9359 21.658 72.7769 21.1616 72.3748 20.1453C71.9726 19.129 72.4694 17.9708 73.4865 17.569C74.5036 17.1672 75.6548 17.6636 76.0648 18.6799Z" fill="#E22326"/>
<path d="M87.0169 15.8358C87.2928 16.8994 86.6463 17.9787 85.5897 18.2466C84.5253 18.5223 83.4451 17.8763 83.177 16.8206C82.901 15.757 83.5476 14.6776 84.6041 14.4098C85.6686 14.134 86.7488 14.7722 87.0169 15.8358Z" fill="#E22326"/>
<path d="M103.086 7.13791C103.094 7.87061 102.518 8.46937 101.785 8.48513C101.052 8.50089 100.453 7.91788 100.437 7.18518C100.421 6.45248 101.005 5.85372 101.738 5.83796C102.471 5.8222 103.07 6.40521 103.086 7.13791Z" fill="#E22326"/>
<path d="M115.252 7.7682C115.174 8.49302 114.519 9.02088 113.794 8.94209C113.068 8.86331 112.54 8.20939 112.619 7.48457C112.698 6.75975 113.352 6.23189 114.078 6.31068C114.803 6.38946 115.331 7.04338 115.252 7.7682Z" fill="#E22326"/>
<path d="M127.245 9.91114C127.072 10.6202 126.362 11.0614 125.652 10.8881C124.943 10.7147 124.501 10.0057 124.675 9.29662C124.84 8.58755 125.558 8.14636 126.267 8.31968C126.977 8.48513 127.419 9.20207 127.245 9.91114Z" fill="#E22326"/>
<path d="M138.875 13.551C138.615 14.2364 137.858 14.5831 137.172 14.3231C136.486 14.0631 136.139 13.3068 136.399 12.6214C136.66 11.9359 137.417 11.5893 138.103 11.8493C138.789 12.1092 139.136 12.8656 138.875 13.551Z" fill="#E22326"/>
<path d="M149.953 18.609C149.614 19.255 148.81 19.4993 148.164 19.1605C147.517 18.8217 147.273 18.0181 147.612 17.3721C147.951 16.726 148.755 16.4818 149.402 16.8206C150.048 17.1594 150.293 17.963 149.953 18.609Z" fill="#E22326"/>
<path d="M160.314 25.0221C159.896 25.6208 159.068 25.7627 158.469 25.3451C157.87 24.9275 157.728 24.1003 158.146 23.5015C158.564 22.9028 159.392 22.761 159.991 23.1785C160.59 23.5961 160.732 24.4233 160.314 25.0221Z" fill="#E22326"/>
<path d="M169.784 32.6721C169.295 33.2157 168.459 33.2551 167.915 32.7666C167.371 32.2782 167.332 31.443 167.82 30.8994C168.309 30.3558 169.145 30.3164 169.689 30.8049C170.233 31.2934 170.273 32.1285 169.784 32.6721Z" fill="#E22326"/>
<path d="M178.228 41.4566C177.677 41.9293 176.841 41.8663 176.36 41.3148C175.887 40.7633 175.95 39.9282 176.502 39.4476C177.054 38.9749 177.889 39.0379 178.37 39.5894C178.843 40.1409 178.78 40.976 178.228 41.4566Z" fill="#E22326"/>
<path d="M185.498 51.2259C184.891 51.6277 184.071 51.4623 183.669 50.8478C183.267 50.2411 183.432 49.4218 184.047 49.02C184.655 48.6182 185.482 48.7836 185.885 49.3981C186.287 50.0048 186.121 50.8241 185.506 51.2259H185.498Z" fill="#E22326"/>
<path d="M191.483 61.8304C190.828 62.1534 190.032 61.8855 189.709 61.2316C189.385 60.5777 189.654 59.782 190.308 59.459C190.962 59.1359 191.759 59.4038 192.082 60.0656C192.405 60.7195 192.137 61.5153 191.475 61.8383L191.483 61.8304Z" fill="#E22326"/>
<path d="M196.088 73.0966C195.394 73.333 194.645 72.9706 194.408 72.2773C194.172 71.584 194.542 70.8355 195.228 70.5991C195.922 70.3628 196.671 70.7252 196.908 71.4185C197.144 72.1118 196.781 72.8603 196.088 73.0966Z" fill="#E22326"/>
<path d="M199.249 84.8592C198.532 85.0089 197.83 84.552 197.68 83.835C197.53 83.1181 197.988 82.4169 198.705 82.2672C199.423 82.1175 200.125 82.5745 200.267 83.2914C200.416 84.0083 199.959 84.7095 199.241 84.8592H199.249Z" fill="#E22326"/>
<path d="M200.913 96.9212C200.188 96.9763 199.549 96.4406 199.486 95.7079C199.431 94.9831 199.975 94.3449 200.7 94.2819C201.426 94.2267 202.064 94.7625 202.127 95.4952C202.183 96.22 201.646 96.8582 200.913 96.9212Z" fill="#E22326"/>
<path d="M201.047 109.093C200.322 109.062 199.754 108.44 199.786 107.715C199.817 106.982 200.44 106.423 201.165 106.454C201.899 106.486 202.459 107.108 202.427 107.833C202.395 108.566 201.773 109.125 201.047 109.093Z" fill="#E22326"/>
<path d="M199.652 121.187C198.934 121.061 198.453 120.375 198.571 119.659C198.697 118.942 199.383 118.453 200.101 118.579C200.818 118.705 201.299 119.391 201.181 120.108C201.055 120.825 200.369 121.313 199.652 121.187Z" fill="#E22326"/>
<path d="M196.75 133.013C196.048 132.8 195.662 132.059 195.875 131.358C196.088 130.657 196.829 130.271 197.53 130.484C198.232 130.696 198.619 131.437 198.406 132.138C198.193 132.839 197.452 133.225 196.758 133.013H196.75Z" fill="#E22326"/>
<path d="M192.39 144.381C191.719 144.082 191.428 143.302 191.727 142.632C192.027 141.97 192.807 141.671 193.478 141.97C194.148 142.27 194.44 143.05 194.14 143.719C193.84 144.389 193.06 144.681 192.39 144.381Z" fill="#E22326"/>
<path d="M186.642 155.112C186.019 154.734 185.822 153.914 186.2 153.292C186.578 152.669 187.399 152.472 188.021 152.851C188.644 153.229 188.841 154.048 188.463 154.671C188.084 155.293 187.264 155.49 186.642 155.112Z" fill="#E22326"/>
<path d="M179.585 165.039C179.017 164.582 178.922 163.754 179.38 163.179C179.837 162.612 180.673 162.517 181.24 162.974C181.816 163.431 181.903 164.267 181.445 164.834C180.988 165.401 180.16 165.496 179.585 165.039Z" fill="#E22326"/>
<path d="M171.345 174.004C170.833 173.484 170.848 172.641 171.369 172.137C171.889 171.625 172.733 171.641 173.237 172.161C173.75 172.681 173.734 173.524 173.214 174.028C172.693 174.54 171.85 174.524 171.345 174.004Z" fill="#E22326"/>
<path d="M162.041 181.867C161.599 181.284 161.718 180.457 162.301 180.016C162.885 179.574 163.713 179.693 164.154 180.276C164.596 180.859 164.477 181.686 163.894 182.127C163.31 182.568 162.482 182.45 162.041 181.867Z" fill="#E22326"/>
<path d="M151.83 188.501C151.467 187.87 151.688 187.059 152.319 186.697C152.95 186.334 153.762 186.555 154.125 187.185C154.487 187.823 154.267 188.627 153.636 188.989C153.005 189.352 152.193 189.131 151.83 188.501Z" fill="#E22326"/>
<path d="M140.862 193.803C140.578 193.125 140.902 192.353 141.58 192.078C142.25 191.794 143.031 192.117 143.307 192.795C143.59 193.472 143.267 194.244 142.589 194.52C141.919 194.804 141.138 194.481 140.862 193.811V193.803Z" fill="#E22326"/>
<path d="M129.319 197.695C129.122 196.986 129.54 196.261 130.241 196.072C130.943 195.875 131.676 196.293 131.866 196.994C132.063 197.695 131.645 198.428 130.943 198.617C130.241 198.814 129.508 198.396 129.319 197.695Z" fill="#E22326"/>
<path d="M117.373 200.106C117.271 199.381 117.768 198.711 118.493 198.609C119.218 198.506 119.889 199.011 119.991 199.728C120.094 200.452 119.589 201.122 118.872 201.225C118.146 201.327 117.476 200.831 117.373 200.106Z" fill="#E22326"/>
<path d="M105.223 201.004C105.207 200.271 105.791 199.672 106.524 199.657C107.257 199.641 107.856 200.224 107.872 200.957C107.888 201.689 107.305 202.288 106.571 202.304C105.838 202.32 105.239 201.737 105.223 201.004Z" fill="#E22326"/>
<path d="M93.0566 200.374C93.1355 199.649 93.7899 199.121 94.5153 199.2C95.2407 199.279 95.769 199.932 95.6902 200.657C95.6113 201.382 94.9569 201.91 94.2315 201.831C93.5061 201.752 92.9778 201.098 93.0566 200.374Z" fill="#E22326"/>
<path d="M81.0638 198.231C81.2373 197.522 81.9469 197.08 82.6566 197.254C83.3662 197.427 83.8077 198.136 83.6343 198.845C83.4608 199.554 82.7512 199.995 82.0415 199.822C81.3319 199.657 80.8904 198.94 81.0638 198.231Z" fill="#E22326"/>
<path d="M69.4337 194.591C69.6939 193.905 70.4509 193.559 71.1368 193.819C71.8228 194.079 72.1697 194.835 71.9095 195.52C71.6493 196.206 70.8924 196.553 70.2064 196.293C69.5204 196.033 69.1735 195.276 69.4337 194.591Z" fill="#E22326"/>
<path d="M58.3555 189.533C58.6946 188.887 59.4988 188.643 60.1454 188.981C60.7919 189.32 61.0364 190.124 60.6973 190.77C60.3583 191.416 59.554 191.66 58.9075 191.321C58.2609 190.982 58.0165 190.179 58.3555 189.533Z" fill="#E22326"/>
<path d="M47.9949 183.12C48.4128 182.521 49.2407 182.379 49.8399 182.797C50.4392 183.214 50.5811 184.042 50.1632 184.64C49.7453 185.239 48.9174 185.381 48.3182 184.963C47.7189 184.546 47.577 183.718 47.9949 183.12Z" fill="#E22326"/>
<path d="M38.5252 175.462C39.0141 174.918 39.8499 174.879 40.3939 175.367C40.938 175.856 40.9774 176.691 40.4807 177.235C39.9918 177.778 39.156 177.818 38.612 177.321C38.0679 176.833 38.0285 175.998 38.5173 175.454L38.5252 175.462Z" fill="#E22326"/>
<path d="M30.0885 166.685C30.6404 166.212 31.4762 166.276 31.9572 166.827C32.4303 167.379 32.3672 168.214 31.8152 168.694C31.2633 169.167 30.4275 169.104 29.9465 168.552C29.4735 168.001 29.5365 167.166 30.0885 166.685Z" fill="#E22326"/>
<path d="M22.8187 156.916C23.4258 156.514 24.2458 156.68 24.6479 157.294C25.0501 157.901 24.8766 158.72 24.2695 159.122C23.6623 159.524 22.8344 159.358 22.4402 158.744C22.0381 158.137 22.2036 157.31 22.8187 156.916Z" fill="#E22326"/>
<path d="M16.8262 146.311C17.4806 145.988 18.277 146.256 18.6003 146.91C18.9236 147.564 18.6555 148.36 17.9932 148.683C17.3387 149.006 16.5423 148.738 16.2191 148.076C15.8958 147.422 16.1639 146.627 16.8262 146.304V146.311Z" fill="#E22326"/>
<path d="M12.2215 135.037C12.9153 134.801 13.6644 135.163 13.9009 135.857C14.1375 136.55 13.7748 137.298 13.0809 137.535C12.3871 137.771 11.638 137.401 11.4014 136.715C11.1649 136.022 11.5276 135.274 12.2215 135.037Z" fill="#E22326"/>
<path d="M9.05965 123.283C9.77717 123.133 10.4789 123.59 10.6287 124.307C10.7785 125.024 10.3212 125.725 9.60371 125.867C8.88619 126.016 8.18444 125.559 8.04251 124.843C7.8927 124.126 8.35002 123.424 9.06754 123.283H9.05965Z" fill="#E22326"/>
<path d="M7.40384 111.221C8.12924 111.165 8.76791 111.701 8.83099 112.434C8.88618 113.159 8.34213 113.797 7.61673 113.86C6.89132 113.915 6.25265 113.371 6.18957 112.647C6.13438 111.922 6.67055 111.284 7.40384 111.221Z" fill="#E22326"/>
<path d="M7.26191 99.0484C7.9952 99.0799 8.55502 99.7023 8.52348 100.427C8.49194 101.16 7.86904 101.719 7.14364 101.688C6.41035 101.656 5.85053 101.034 5.88207 100.309C5.91361 99.5762 6.53651 99.0169 7.26191 99.0484Z" fill="#E22326"/>
<path d="M8.65753 86.9549C9.37505 87.0809 9.85602 87.7664 9.73775 88.4833C9.61159 89.2003 8.92561 89.6887 8.20809 89.5627C7.49057 89.4366 7.0096 88.7512 7.12787 88.0342C7.25403 87.3173 7.94001 86.8288 8.65753 86.9549Z" fill="#E22326"/>
<path d="M11.5591 75.1293C12.2609 75.342 12.6473 76.0826 12.4344 76.7838C12.2215 77.485 11.4803 77.871 10.7785 77.6583C10.0768 77.4456 9.69044 76.705 9.90333 76.0038C10.1162 75.3026 10.8574 74.9087 11.5513 75.1293H11.5591Z" fill="#E22326"/>
<path d="M15.9194 63.7606C16.5897 64.06 16.8814 64.84 16.5818 65.5096C16.2821 66.1793 15.5016 66.4708 14.8313 66.1714C14.1611 65.872 13.8694 65.0921 14.169 64.4224C14.4686 63.7527 15.2492 63.4612 15.9194 63.7606Z" fill="#E22326"/>
<path d="M21.6675 53.0301C22.2904 53.4083 22.4875 54.2277 22.109 54.8501C21.7306 55.4725 20.9105 55.6694 20.2876 55.2913C19.6647 54.9131 19.4676 54.0937 19.8461 53.4713C20.2246 52.8489 21.0446 52.652 21.6675 53.0301Z" fill="#E22326"/>
<path d="M28.7244 43.1032C29.2921 43.5602 29.3867 44.3874 28.9294 44.9625C28.4721 45.5298 27.6363 45.6243 27.0686 45.1674C26.5009 44.7104 26.4063 43.8832 26.8636 43.3081C27.3209 42.7408 28.1488 42.6463 28.7244 43.1032Z" fill="#E22326"/>
<path d="M36.964 34.1375C37.4765 34.6575 37.4608 35.5005 36.9404 36.0047C36.42 36.5168 35.5763 36.501 35.0717 35.9811C34.5592 35.4611 34.5749 34.6181 35.0953 34.1139C35.6157 33.6018 36.4594 33.6175 36.964 34.1375Z" fill="#E22326"/>
<path d="M46.2681 26.2748C46.7097 26.8578 46.5914 27.685 46.0079 28.1262C45.4244 28.5674 44.5965 28.4492 44.155 27.8662C43.7134 27.2832 43.8317 26.456 44.4152 26.0148C44.9987 25.5736 45.8266 25.6918 46.2681 26.2748Z" fill="#E22326"/>
<path d="M56.479 19.6411C56.8417 20.2792 56.6209 21.0828 55.9901 21.4452C55.3593 21.8077 54.5472 21.5871 54.1845 20.9568C53.8218 20.3265 54.0425 19.515 54.6733 19.1526C55.3041 18.7902 56.1162 19.0108 56.479 19.6411Z" fill="#E22326"/>
<path d="M67.4468 14.331C67.7306 15.0085 67.4073 15.7806 66.7292 16.0564C66.0511 16.34 65.2784 16.017 65.0025 15.3473C64.7186 14.6698 65.0419 13.8977 65.72 13.6219C66.3981 13.3383 67.1708 13.6613 67.4468 14.331Z" fill="#E22326"/>
<path d="M78.9901 10.4469C79.1872 11.1481 78.7693 11.8808 78.0676 12.0698C77.3658 12.2668 76.6325 11.8492 76.4433 11.1481C76.2462 10.4469 76.6641 9.71418 77.3658 9.52509C78.0676 9.32813 78.8009 9.74569 78.9901 10.4469Z" fill="#E22326"/>
<path d="M90.9356 8.03606C91.0381 8.76088 90.5414 9.43055 89.816 9.53297C89.0906 9.63539 88.4204 9.13117 88.3179 8.41422C88.2154 7.6894 88.72 7.01973 89.4375 6.91731C90.1629 6.81489 90.8331 7.31124 90.9356 8.03606Z" fill="#E22326"/>
<path d="M83.2716 2.58415C83.4056 2.92293 83.24 3.30897 82.901 3.44291C82.5619 3.57684 82.1756 3.41139 82.0416 3.07262C81.9075 2.73384 82.0731 2.3478 82.4121 2.21386C82.7512 2.07993 83.1375 2.24538 83.2716 2.58415Z" fill="#E22326"/>
<path d="M96.1633 0.764215C96.25 1.11875 96.0371 1.48116 95.6902 1.56782C95.3353 1.65448 94.9726 1.44176 94.8859 1.09511C94.7992 0.740579 95.0121 0.378169 95.359 0.291505C95.7138 0.204842 96.0765 0.417561 96.1633 0.764215Z" fill="#E22326"/>
<path d="M109.173 0.575127C109.221 0.937537 108.96 1.26843 108.598 1.3157C108.235 1.36298 107.904 1.10299 107.856 0.740575C107.809 0.378165 108.069 0.0472681 108.432 -2.84286e-06C108.795 -0.0472738 109.126 0.212716 109.173 0.575127Z" fill="#E22326"/>
<path d="M122.104 2.02477C122.104 2.38718 121.805 2.68656 121.442 2.68656C121.079 2.68656 120.78 2.38718 120.78 2.02477C120.78 1.66236 121.079 1.36298 121.442 1.36298C121.805 1.36298 122.104 1.66236 122.104 2.02477Z" fill="#E22326"/>
<path d="M134.752 5.07375C134.704 5.43616 134.373 5.69615 134.01 5.64888C133.648 5.60161 133.395 5.27071 133.435 4.9083C133.482 4.54589 133.813 4.2859 134.176 4.33317C134.539 4.38044 134.799 4.71134 134.752 5.07375Z" fill="#E22326"/>
<path d="M146.926 9.68266C146.839 10.0372 146.476 10.2499 146.121 10.1554C145.767 10.0608 145.554 9.7063 145.648 9.35177C145.735 8.99724 146.098 8.78452 146.453 8.87906C146.807 8.9736 147.02 9.32813 146.926 9.68266Z" fill="#E22326"/>
<path d="M158.414 15.7885C158.28 16.1273 157.894 16.2927 157.554 16.1588C157.215 16.0249 157.05 15.6388 157.184 15.3C157.318 14.9613 157.704 14.7958 158.043 14.9297C158.382 15.0637 158.548 15.4497 158.414 15.7885Z" fill="#E22326"/>
<path d="M169.051 23.2731C168.877 23.5961 168.475 23.7064 168.152 23.533C167.828 23.3597 167.718 22.9579 167.891 22.6349C168.065 22.3119 168.467 22.2016 168.79 22.3749C169.114 22.5482 169.224 22.95 169.051 23.2731Z" fill="#E22326"/>
<path d="M178.67 32.0418C178.457 32.3412 178.039 32.4042 177.747 32.1836C177.448 31.9709 177.385 31.5534 177.598 31.2619C177.811 30.9625 178.228 30.8994 178.52 31.12C178.812 31.3328 178.883 31.7503 178.662 32.0418H178.67Z" fill="#E22326"/>
<path d="M187.107 41.9372C186.854 42.2051 186.437 42.2129 186.168 41.9687C185.9 41.7166 185.893 41.299 186.137 41.0312C186.389 40.7633 186.807 40.7554 187.067 40.9997C187.335 41.2518 187.343 41.6693 187.099 41.9372H187.107Z" fill="#E22326"/>
<path d="M194.235 52.8174C193.951 53.0538 193.533 53.0065 193.304 52.7307C193.076 52.4471 193.115 52.0295 193.391 51.8011C193.675 51.5726 194.093 51.612 194.321 51.8877C194.55 52.1714 194.511 52.5889 194.235 52.8174Z" fill="#E22326"/>
<path d="M199.943 64.5012C199.636 64.6982 199.226 64.6036 199.029 64.2964C198.831 63.9891 198.926 63.5794 199.234 63.3825C199.541 63.1855 199.951 63.28 200.148 63.5873C200.345 63.8946 200.251 64.3042 199.943 64.5012Z" fill="#E22326"/>
<path d="M204.146 76.8074C203.815 76.965 203.42 76.8232 203.263 76.4923C203.105 76.1614 203.247 75.7674 203.578 75.6099C203.909 75.4523 204.304 75.5941 204.461 75.925C204.619 76.2559 204.477 76.6498 204.146 76.8074Z" fill="#E22326"/>
<path d="M206.771 89.5469C206.425 89.6572 206.054 89.4681 205.936 89.1215C205.825 88.7748 206.015 88.4045 206.361 88.2864C206.708 88.1761 207.079 88.3651 207.197 88.7118C207.308 89.0584 207.118 89.4287 206.771 89.5469Z" fill="#E22326"/>
<path d="M207.773 102.507C207.41 102.578 207.063 102.342 207 101.979C206.929 101.617 207.166 101.278 207.528 101.207C207.883 101.136 208.23 101.373 208.301 101.735C208.372 102.089 208.136 102.436 207.773 102.507Z" fill="#E22326"/>
<path d="M207.142 115.499C206.779 115.522 206.464 115.247 206.44 114.876C206.417 114.514 206.693 114.199 207.063 114.175C207.426 114.151 207.741 114.427 207.765 114.79C207.789 115.152 207.513 115.467 207.142 115.491V115.499Z" fill="#E22326"/>
<path d="M204.887 128.301C204.524 128.278 204.248 127.962 204.272 127.6C204.296 127.238 204.611 126.962 204.974 126.985C205.336 127.009 205.612 127.324 205.589 127.687C205.565 128.049 205.25 128.325 204.887 128.301Z" fill="#E22326"/>
<path d="M201.047 140.726C200.692 140.655 200.456 140.308 200.519 139.953C200.59 139.599 200.937 139.363 201.292 139.426C201.654 139.497 201.883 139.843 201.82 140.198C201.749 140.552 201.402 140.789 201.047 140.726Z" fill="#E22326"/>
<path d="M195.678 152.575C195.331 152.465 195.141 152.086 195.252 151.74C195.362 151.393 195.741 151.204 196.088 151.314C196.435 151.425 196.624 151.803 196.513 152.149C196.403 152.496 196.024 152.685 195.678 152.575Z" fill="#E22326"/>
<path d="M188.857 163.652C188.526 163.494 188.384 163.101 188.542 162.77C188.7 162.439 189.094 162.297 189.425 162.454C189.756 162.612 189.898 163.006 189.74 163.337C189.583 163.668 189.188 163.81 188.857 163.652Z" fill="#E22326"/>
<path d="M180.712 173.792C180.405 173.595 180.31 173.185 180.507 172.878C180.704 172.57 181.114 172.476 181.422 172.673C181.729 172.87 181.824 173.279 181.627 173.587C181.43 173.894 181.02 173.989 180.712 173.792Z" fill="#E22326"/>
<path d="M171.353 182.828C171.069 182.592 171.03 182.182 171.266 181.899C171.503 181.615 171.913 181.576 172.197 181.812C172.48 182.048 172.52 182.458 172.283 182.742C172.047 183.025 171.637 183.065 171.353 182.828Z" fill="#E22326"/>
<path d="M160.937 190.62C160.685 190.352 160.7 189.935 160.969 189.69C161.237 189.438 161.655 189.454 161.907 189.722C162.159 189.99 162.143 190.407 161.875 190.652C161.607 190.904 161.189 190.888 160.937 190.62Z" fill="#E22326"/>
<path d="M149.622 197.049C149.409 196.75 149.473 196.34 149.772 196.127C150.072 195.914 150.482 195.977 150.695 196.277C150.908 196.576 150.844 196.986 150.545 197.199C150.253 197.411 149.835 197.348 149.622 197.049Z" fill="#E22326"/>
<path d="M137.598 202.004C137.425 201.681 137.543 201.28 137.858 201.106C138.181 200.933 138.584 201.051 138.757 201.366C138.931 201.689 138.812 202.091 138.497 202.264C138.174 202.438 137.771 202.327 137.598 202.004Z" fill="#E22326"/>
<path d="M125.037 205.424C124.903 205.085 125.069 204.699 125.408 204.565C125.747 204.431 126.133 204.596 126.267 204.935C126.402 205.274 126.236 205.66 125.897 205.794C125.558 205.928 125.172 205.763 125.037 205.424Z" fill="#E22326"/>
<path d="M112.154 207.236C112.067 206.881 112.28 206.519 112.635 206.432C112.989 206.338 113.352 206.558 113.439 206.905C113.526 207.259 113.313 207.614 112.958 207.709C112.603 207.795 112.24 207.582 112.154 207.236Z" fill="#E22326"/>
<path d="M99.1358 207.425C99.0885 207.062 99.3487 206.732 99.7114 206.684C100.074 206.637 100.405 206.897 100.453 207.259C100.5 207.622 100.24 207.953 99.877 208C99.5143 208.047 99.1831 207.787 99.1358 207.425Z" fill="#E22326"/>
<path d="M86.2047 205.983C86.2047 205.621 86.5043 205.321 86.867 205.321C87.2298 205.321 87.5294 205.621 87.5294 205.983C87.5294 206.346 87.2298 206.645 86.867 206.645C86.5043 206.645 86.2047 206.346 86.2047 205.983Z" fill="#E22326"/>
<path d="M73.5575 202.926C73.6048 202.564 73.9359 202.312 74.2986 202.351C74.6613 202.398 74.9137 202.729 74.8742 203.092C74.8269 203.454 74.4958 203.706 74.1331 203.667C73.7704 203.62 73.5102 203.289 73.5575 202.926Z" fill="#E22326"/>
<path d="M61.3833 198.317C61.4779 197.963 61.8328 197.75 62.1876 197.845C62.5424 197.939 62.7553 198.294 62.6607 198.648C62.5739 199.003 62.2112 199.215 61.8564 199.121C61.5016 199.026 61.2887 198.672 61.3833 198.317Z" fill="#E22326"/>
<path d="M49.8951 192.219C50.0292 191.881 50.4155 191.715 50.7546 191.849C51.0936 191.983 51.2592 192.369 51.1252 192.708C50.9911 193.047 50.6048 193.212 50.2657 193.078C49.9267 192.944 49.7611 192.558 49.8951 192.219Z" fill="#E22326"/>
<path d="M39.2585 184.727C39.432 184.404 39.8341 184.294 40.1574 184.467C40.4807 184.64 40.591 185.042 40.4176 185.365C40.2441 185.688 39.842 185.798 39.5187 185.625C39.1954 185.452 39.085 185.05 39.2585 184.727Z" fill="#E22326"/>
<path d="M29.639 175.966C29.8519 175.667 30.2698 175.604 30.5616 175.824C30.8533 176.037 30.9243 176.455 30.7035 176.746C30.4906 177.045 30.0727 177.108 29.781 176.896C29.4892 176.683 29.4183 176.265 29.639 175.974V175.966Z" fill="#E22326"/>
<path d="M21.2023 166.063C21.4546 165.795 21.8725 165.787 22.1406 166.031C22.4087 166.283 22.4165 166.701 22.1721 166.969C21.9198 167.237 21.5019 167.245 21.2338 167C20.9657 166.748 20.9579 166.331 21.2023 166.071V166.063Z" fill="#E22326"/>
<path d="M14.0744 155.183C14.3583 154.954 14.7762 154.994 15.0048 155.269C15.2335 155.553 15.194 155.97 14.9181 156.199C14.6342 156.435 14.2163 156.396 13.9877 156.112C13.759 155.829 13.7984 155.411 14.0744 155.183Z" fill="#E22326"/>
<path d="M8.36578 143.499C8.67329 143.302 9.0833 143.396 9.28042 143.704C9.47754 144.011 9.38293 144.421 9.07542 144.618C8.76791 144.815 8.3579 144.72 8.16078 144.413C7.96366 144.105 8.05828 143.696 8.36578 143.499Z" fill="#E22326"/>
<path d="M4.16319 131.193C4.49435 131.035 4.88859 131.177 5.04629 131.508C5.20398 131.839 5.06206 132.233 4.73089 132.39C4.39973 132.548 4.00549 132.406 3.84779 132.075C3.6901 131.744 3.83202 131.35 4.16319 131.2V131.193Z" fill="#E22326"/>
<path d="M1.54543 118.453C1.89236 118.343 2.26295 118.532 2.38122 118.879C2.49161 119.225 2.30237 119.595 1.95544 119.714C1.60851 119.824 1.23792 119.635 1.11965 119.288C1.00926 118.942 1.1985 118.571 1.54543 118.453Z" fill="#E22326"/>
<path d="M0.536159 105.493C0.898861 105.422 1.23791 105.658 1.30887 106.021C1.37983 106.375 1.14329 106.722 0.780589 106.793C0.425772 106.864 0.0788397 106.627 0.00787627 106.265C-0.0630871 105.911 0.173457 105.564 0.536159 105.493Z" fill="#E22326"/>
<path d="M1.16695 92.5014C1.52965 92.4777 1.84505 92.7535 1.8687 93.1237C1.89235 93.4862 1.61639 93.8013 1.25368 93.8249C0.890983 93.8486 0.57559 93.5728 0.551935 93.2104C0.528281 92.848 0.80425 92.5329 1.17484 92.5092L1.16695 92.5014Z" fill="#E22326"/>
<path d="M3.422 79.6988C3.78471 79.7224 4.06067 80.0376 4.03702 80.4C4.01337 80.7624 3.69797 81.0381 3.33527 81.0145C2.97257 80.9909 2.6966 80.6757 2.72026 80.3133C2.74391 79.9509 3.0593 79.6752 3.422 79.6988Z" fill="#E22326"/>
<path d="M7.26191 67.2744C7.61673 67.3453 7.85327 67.692 7.79019 68.0465C7.71923 68.4011 7.3723 68.6374 7.01748 68.5744C6.65478 68.5035 6.42612 68.1568 6.4892 67.8023C6.56016 67.4399 6.90709 67.2114 7.26191 67.2744Z" fill="#E22326"/>
<path d="M12.6394 55.4331C12.9863 55.5434 13.1755 55.9215 13.0651 56.2682C12.9548 56.6148 12.5763 56.8039 12.2294 56.6936C11.8824 56.5833 11.6932 56.2052 11.8036 55.8585C11.914 55.5119 12.2924 55.3228 12.6394 55.4331Z" fill="#E22326"/>
<path d="M19.4518 44.348C19.783 44.5056 19.9249 44.8995 19.7672 45.2304C19.6095 45.5613 19.2153 45.7031 18.8841 45.5455C18.553 45.388 18.411 44.9941 18.5687 44.6632C18.7264 44.3323 19.1207 44.1904 19.4518 44.348Z" fill="#E22326"/>
<path d="M27.5969 34.2163C27.9044 34.4132 27.999 34.8229 27.8019 35.1302C27.6048 35.4375 27.1947 35.532 26.8872 35.335C26.5797 35.1381 26.4851 34.7284 26.6822 34.4211C26.8794 34.1139 27.2894 34.0193 27.5969 34.2163Z" fill="#E22326"/>
<path d="M36.9561 25.1796C37.24 25.416 37.2794 25.8257 37.0429 26.1093C36.8063 26.3929 36.3963 26.4323 36.1125 26.196C35.8286 25.9596 35.7892 25.5499 36.0257 25.2663C36.2623 24.9827 36.6723 24.9433 36.9561 25.1796Z" fill="#E22326"/>
<path d="M47.372 17.3799C47.6243 17.6478 47.6085 18.0654 47.3405 18.3175C47.0724 18.5696 46.6545 18.5538 46.4022 18.286C46.1498 18.0181 46.1656 17.6005 46.4337 17.3484C46.7018 17.0963 47.1197 17.1121 47.372 17.3799Z" fill="#E22326"/>
<path d="M58.6867 10.959C58.8996 11.2505 58.8365 11.668 58.5369 11.8808C58.2451 12.0935 57.8273 12.0305 57.6144 11.7311C57.4015 11.4396 57.4646 11.022 57.7642 10.8093C58.0559 10.5966 58.4738 10.6596 58.6867 10.959Z" fill="#E22326"/>
<path d="M70.7189 5.99553C70.8924 6.31855 70.7741 6.72035 70.4587 6.89368C70.1355 7.06701 69.7333 6.94883 69.5599 6.63369C69.3864 6.31067 69.5047 5.90887 69.8201 5.73554C70.1433 5.56221 70.5455 5.68039 70.7189 5.99553Z" fill="#E22326"/>
<path d="M170.683 104.004C170.683 140.718 140.894 170.475 104.158 170.475C67.4231 170.475 37.6342 140.71 37.6342 104.004C37.6342 67.2981 67.4152 37.5253 104.158 37.5253C140.902 37.5253 170.683 67.2902 170.683 103.996V104.004Z" fill="#E22326"/>
<path d="M374.868 88.1367C382.635 88.1367 386.538 94.148 386.538 100.159C386.538 106.171 382.627 112.135 374.868 112.135H366.952V124.11H361.708V88.1445H374.876L374.868 88.1367ZM374.868 106.99C379.236 106.99 381.397 103.602 381.397 100.207C381.397 96.8109 379.236 93.3759 374.868 93.3759H366.952V106.99H374.868Z" fill="#A4A4A4"/>
<path d="M397.024 105.863H403.096C407.464 105.863 409.624 102.728 409.624 99.592C409.624 96.4564 407.464 93.3759 403.096 93.3759H395.124V124.102H389.983V88.1367H403.096C410.909 88.1367 414.82 93.888 414.82 99.592C414.82 104.682 411.682 109.511 405.516 110.59L416.878 124.102H410.145L397.032 108.329V105.863H397.024Z" fill="#A4A4A4"/>
<path d="M422.682 93.1159C425.969 89.7754 430.598 87.6718 435.636 87.6718C440.675 87.6718 445.303 89.7754 448.646 93.1159C451.887 96.4564 453.992 101.026 453.992 106.115C453.992 111.205 451.887 115.774 448.646 119.115C445.303 122.503 440.73 124.559 435.636 124.559C430.543 124.559 425.969 122.503 422.682 119.115C419.441 115.774 417.336 111.205 417.336 106.115C417.336 101.026 419.441 96.4564 422.682 93.1159ZM444.948 96.8188C442.528 94.4001 439.192 92.911 435.644 92.911C432.096 92.911 428.808 94.4001 426.443 96.8188C424.077 99.1823 422.587 102.468 422.587 106.115C422.587 109.763 424.077 113.048 426.443 115.412C428.808 117.831 432.096 119.32 435.644 119.32C439.192 119.32 442.535 117.831 444.948 115.412C447.258 113.048 448.757 109.81 448.757 106.115C448.757 102.42 447.266 99.1823 444.948 96.8188Z" fill="#A4A4A4"/>
<path d="M153.013 116.46L121.789 108.857L113.62 75.1923C113.21 73.4512 112.493 72.6239 111.081 72.6082L62.913 72.9469C61.4937 72.9312 60.3425 74.0736 60.3268 75.4838L71.8307 118.445C72.0042 119.209 72.3274 120.415 73.384 120.99L99.9716 131.957C102.321 132.989 103.922 133.036 105.759 132.697L152.792 120.171C154.314 119.792 154.637 117.665 154.653 117.405C154.684 117.019 154.235 116.649 153.013 116.436V116.46ZM63.1732 75.7123C74.5194 75.665 107.549 75.0663 112.217 74.9323L119.676 105.138L72.8163 112.261L63.1732 75.7123ZM148.999 118.563L105.625 129.822C103.977 130.129 102.542 130.09 100.437 129.16L73.1317 118.028C73.045 117.98 72.9819 117.941 72.9188 117.894C73.3288 117.776 73.8413 117.673 74.409 117.579L119.408 109.306L149.22 116.539C151.735 116.972 150.584 118.162 148.999 118.556V118.563Z" fill="white"/>
<path d="M136.116 119.769L124.88 116.641C124.675 116.562 124.415 116.554 123.941 116.657L109.173 120.171C108.732 120.242 108.44 120.344 108.747 120.509L119.423 123.952C119.928 124.173 120.275 124.189 120.669 124.11L136.06 120.257C136.447 120.163 136.723 119.879 136.116 119.769Z" fill="white"/>
<path d="M119.542 112.946L118.698 112.694L116.814 113.096L117.642 113.348L119.542 112.946Z" fill="white"/>
<path d="M120.575 115.688L121.41 115.948L123.374 115.514L122.554 115.262L120.575 115.688Z" fill="white"/>
<path d="M115.095 116.854L115.986 117.145L117.925 116.72L117.05 116.436L115.095 116.854Z" fill="white"/>
<path d="M117.831 116.271L118.698 116.546L120.63 116.121L119.786 115.853L117.831 116.271Z" fill="white"/>
<path d="M123.602 113.758L125.582 113.332L124.903 113.135L122.932 113.553L123.602 113.758Z" fill="white"/>
<path d="M115.331 112.639L116.033 112.859L117.917 112.458L117.224 112.253L115.331 112.639Z" fill="white"/>
<path d="M122.144 113.316L124.099 112.899L123.066 112.599L121.127 113.009L122.144 113.316Z" fill="white"/>
<path d="M123.35 115.097L124.154 115.341L126.094 114.916L125.306 114.679L123.35 115.097Z" fill="white"/>
<path d="M100.776 119.911L101.761 120.281L103.677 119.855L102.708 119.501L100.776 119.911Z" fill="white"/>
<path d="M103.425 119.343L104.387 119.698L106.831 119.162L105.862 118.823L103.425 119.343Z" fill="white"/>
<path d="M112.422 117.429L113.352 117.728L115.229 117.311L114.322 117.019L112.422 117.429Z" fill="white"/>
<path d="M98.1187 120.478L99.1437 120.856L101.052 120.438L100.058 120.06L98.1187 120.478Z" fill="white"/>
<path d="M109.37 118.075L110.301 118.398L112.587 117.894L111.649 117.594L109.37 118.075Z" fill="white"/>
<path d="M106.603 118.666L107.565 119.005L109.56 118.563L108.613 118.24L106.603 118.666Z" fill="white"/>
<path d="M112.627 113.206L113.344 113.427L115.237 113.025L114.535 112.812L112.627 113.206Z" fill="white"/>
<path d="M97.6141 117.602L96.8808 117.326L94.9411 117.736L95.6744 118.012L97.6141 117.602Z" fill="white"/>
<path d="M104.553 114.884L105.318 115.128L107.202 114.734L106.453 114.49L104.553 114.884Z" fill="white"/>
<path d="M92.2839 118.303L93.0172 118.579L94.9569 118.162L94.2236 117.894L92.2839 118.303Z" fill="white"/>
<path d="M104.001 116.247L106.106 115.798L105.302 115.538L103.228 115.979L104.001 116.247Z" fill="white"/>
<path d="M100.539 116.98L99.7745 116.712L97.5983 117.177L98.3316 117.445L100.539 116.98Z" fill="white"/>
<path d="M101.738 115.467L102.495 115.727L104.545 115.294L103.78 115.05L101.738 115.467Z" fill="white"/>
<path d="M114.929 113.923L116.845 113.521L116.017 113.261L114.109 113.671L114.929 113.923Z" fill="white"/>
<path d="M103.252 116.405L102.471 116.137L100.516 116.554L101.288 116.822L103.252 116.405Z" fill="white"/>
<path d="M109.93 113.765L110.656 114.002L112.556 113.592L111.83 113.371L109.93 113.765Z" fill="white"/>
<path d="M112.233 114.498L114.141 114.088L113.321 113.836L111.42 114.238L112.233 114.498Z" fill="white"/>
<path d="M95.4694 121.045L96.526 121.431L98.4341 121.014L97.4012 120.628L95.4694 121.045Z" fill="white"/>
<path d="M107.226 114.325L107.975 114.569L109.875 114.167L109.142 113.931L107.226 114.325Z" fill="white"/>
<path d="M109.536 115.073L111.452 114.664L110.64 114.404L108.732 114.813L109.536 115.073Z" fill="white"/>
<path d="M106.879 115.633L108.763 115.231L107.959 114.979L106.074 115.373L106.879 115.633Z" fill="white"/>
<path d="M86.1574 119.603L83.4214 120.186L84.1468 120.462L86.9222 119.871L86.1574 119.603Z" fill="white"/>
<path d="M112.035 112.048L111.507 111.882L109.56 112.245L110.151 112.434L112.035 112.048Z" fill="white"/>
<path d="M114.716 111.496L114.283 111.362L112.343 111.725L112.84 111.882L114.716 111.496Z" fill="white"/>
<path d="M117.397 110.945L117.05 110.842L115.126 111.205L115.528 111.331L117.397 110.945Z" fill="white"/>
<path d="M92.9462 121.581L94.0738 121.975L95.8163 121.589L94.7519 121.195L92.9462 121.581Z" fill="white"/>
<path d="M119.652 110.488C119.455 110.433 119.211 110.441 118.793 110.519L117.902 110.685L118.217 110.779L119.652 110.488Z" fill="white"/>
<path d="M109.355 112.591L108.74 112.402L106.784 112.773L107.454 112.985L109.355 112.591Z" fill="white"/>
<path d="M106.666 113.143L105.964 112.922L104.001 113.293L104.766 113.537L106.666 113.143Z" fill="white"/>
<path d="M128.144 113.671L130.549 113.159L129.5 112.899L127.19 113.395L128.144 113.671Z" fill="white"/>
<path d="M101.296 114.246L100.421 113.962L98.4183 114.333L99.333 114.648L101.296 114.246Z" fill="white"/>
<path d="M129.697 114.12L131.148 113.797C131.471 113.718 131.716 113.498 131.416 113.371L128.948 113.899L129.705 114.12H129.697Z" fill="white"/>
<path d="M119.944 111.284L121.544 110.945L120.543 110.701L119.029 111.016L119.944 111.284Z" fill="white"/>
<path d="M126.394 113.159L128.617 112.686L127.884 112.505L125.716 112.962L126.394 113.159Z" fill="white"/>
<path d="M121.426 111.709L123.153 111.347L122.428 111.165L120.748 111.512L121.426 111.709Z" fill="white"/>
<path d="M124.919 112.733L127.001 112.284L125.857 112.008L123.878 112.426L124.919 112.733Z" fill="white"/>
<path d="M123.082 112.198L124.974 111.788L124.036 111.559L122.223 111.945L123.082 112.198Z" fill="white"/>
<path d="M103.977 113.694L103.189 113.442L101.225 113.813L102.077 114.081L103.977 113.694Z" fill="white"/>
<path d="M87.6319 120.123L84.8328 120.714L85.6922 121.045L88.5307 120.438L87.6319 120.123Z" fill="white"/>
<path d="M99.0255 116.034L99.7982 116.302L101.746 115.893L100.981 115.625L99.0255 116.034Z" fill="white"/>
<path d="M84.5647 119.044L81.876 119.603L82.7354 119.926L85.4478 119.351L84.5647 119.044Z" fill="white"/>
<path d="M98.5681 114.805L97.6298 114.482L95.6271 114.86L96.6206 115.199L98.5681 114.805Z" fill="white"/>
<path d="M89.2246 122.377L89.6189 122.526C90.1235 122.747 90.4704 122.763 90.8646 122.684L93.3405 122.14L92.213 121.738L89.2325 122.377H89.2246Z" fill="white"/>
<path d="M82.83 118.429L80.1965 118.973L81.1821 119.343L83.8472 118.792L82.83 118.429Z" fill="white"/>
<path d="M90.6597 121.187L87.7423 121.817L88.5465 122.117L91.5033 121.486L90.6597 121.187Z" fill="white"/>
<path d="M89.2483 120.691L86.3782 121.297L87.0642 121.557L89.95 120.943L89.2483 120.691Z" fill="white"/>
<path d="M93.1118 115.924L92.0474 115.53L90.021 115.908L91.1485 116.326L93.1118 115.924Z" fill="white"/>
<path d="M90.4152 116.476L89.2719 116.05L87.2455 116.428L88.4519 116.877L90.4152 116.476Z" fill="white"/>
<path d="M95.8636 115.357L94.8465 115.002L92.7964 115.388L93.8372 115.774L95.8636 115.357Z" fill="white"/>
<path d="M85.0299 117.579L83.721 117.09L81.4265 117.516L82.8616 118.02L85.0299 117.579Z" fill="white"/>
<path d="M87.7265 117.027L86.4965 116.57L84.4701 116.948L85.7632 117.429L87.7265 117.027Z" fill="white"/>
<path d="M82.1125 118.177L80.6538 117.665L78.9113 117.988C78.4697 118.059 78.178 118.162 78.4855 118.327L79.5421 118.729V118.705L82.1125 118.177Z" fill="white"/>
<path d="M88.1129 118.303L88.9408 118.611L90.8725 118.201L90.0683 117.902L88.1129 118.303Z" fill="white"/>
<path d="M89.3744 117.642L88.4204 117.287L86.457 117.689L87.419 118.043L89.3744 117.642Z" fill="white"/>
<path d="M92.0474 117.082L91.1091 116.736L89.1458 117.137L90.0998 117.492L92.0474 117.082Z" fill="white"/>
<path d="M85.7316 117.839L83.5791 118.28L84.5962 118.634L86.6936 118.193L85.7316 117.839Z" fill="white"/>
<path d="M94.7282 116.523L93.8057 116.184L91.8424 116.586L92.7728 116.933L94.7282 116.523Z" fill="white"/>
<path d="M87.3874 118.453L85.3137 118.886L86.189 119.194L88.2153 118.76L87.3874 118.453Z" fill="white"/>
<path d="M90.3285 119.548L88.3731 119.966L89.2719 120.281L91.2037 119.871L90.3285 119.548Z" fill="white"/>
<path d="M88.9092 119.02L86.8986 119.446L87.6634 119.714L89.6425 119.296L88.9092 119.02Z" fill="white"/>
<path d="M100.248 115.38L99.3014 115.057L97.3539 115.451L98.3 115.782L100.248 115.38Z" fill="white"/>
<path d="M108.377 113.687L107.431 113.387L105.523 113.781L106.469 114.081L108.377 113.687Z" fill="white"/>
<path d="M111.058 113.127L110.127 112.836L108.227 113.23L109.165 113.521L111.058 113.127Z" fill="white"/>
<path d="M105.688 114.246L104.742 113.939L102.842 114.333L103.796 114.64L105.688 114.246Z" fill="white"/>
<path d="M91.8897 120.131L89.9894 120.533L90.6912 120.785L92.5678 120.383L91.8897 120.131Z" fill="white"/>
<path d="M103.023 114.797L102.061 114.49L100.066 114.9L101.005 115.223L103.023 114.797Z" fill="white"/>
<path d="M97.5431 115.94L96.5969 115.609L94.5311 116.034L95.4536 116.373L97.5431 115.94Z" fill="white"/>
<path d="M113.447 116.326L114.338 116.617L116.285 116.2L115.386 115.916L113.447 116.326Z" fill="white"/>
<path d="M116.167 115.743L117.066 116.034L119.021 115.617L118.107 115.333L116.167 115.743Z" fill="white"/>
<path d="M118.895 115.168L119.802 115.451L121.781 115.026L120.851 114.742L118.895 115.168Z" fill="white"/>
<path d="M113.746 112.568L112.824 112.284L110.924 112.67L111.854 112.962L113.746 112.568Z" fill="white"/>
<path d="M128.128 114.081L126.11 114.506L126.89 114.742L128.893 114.301L128.128 114.081Z" fill="white"/>
<path d="M110.782 116.893L111.673 117.185L113.565 116.783L112.674 116.491L110.782 116.893Z" fill="white"/>
<path d="M126.378 113.568L124.383 113.994L125.321 114.27L127.332 113.844L126.378 113.568Z" fill="white"/>
<path d="M121.647 114.577L122.57 114.86L124.525 114.443L123.587 114.159L121.647 114.577Z" fill="white"/>
<path d="M91.4008 121.029L92.2366 121.329L94.0659 120.943L93.2537 120.635L91.4008 121.029Z" fill="white"/>
<path d="M96.6206 119.919L97.4327 120.218L99.3645 119.808L98.5602 119.509L96.6206 119.919Z" fill="white"/>
<path d="M99.2778 119.351L100.09 119.651L102.022 119.241L101.21 118.942L99.2778 119.351Z" fill="white"/>
<path d="M93.9713 120.486L94.7834 120.785L96.7152 120.375L95.9031 120.068L93.9713 120.486Z" fill="white"/>
<path d="M105.034 118.122L105.885 118.422L107.888 117.988L107.029 117.697L105.034 118.122Z" fill="white"/>
<path d="M101.927 118.784L102.739 119.091L105.136 118.579L104.293 118.28L101.927 118.784Z" fill="white"/>
<path d="M107.778 117.539L108.645 117.831L110.9 117.35L110.009 117.059L107.778 117.539Z" fill="white"/>
<path d="M90.7937 117.744L91.5901 118.043L93.5297 117.634L92.7413 117.342L90.7937 117.744Z" fill="white"/>
<path d="M101.257 117.232L99.0255 117.705L99.9007 118.028L102.179 117.547L101.257 117.232Z" fill="white"/>
<path d="M100.524 118.682L99.8691 118.437L97.9295 118.855L98.5839 119.099L100.524 118.682Z" fill="white"/>
<path d="M106.855 116.042L104.726 116.491L105.657 116.814L107.817 116.35L106.855 116.042Z" fill="white"/>
<path d="M116.427 112.008L115.513 111.733L113.628 112.119L114.551 112.402L116.427 112.008Z" fill="white"/>
<path d="M103.567 118.036L102.897 117.799L100.587 118.288L101.241 118.532L103.567 118.036Z" fill="white"/>
<path d="M106.303 117.445L105.633 117.216L103.646 117.642L104.316 117.87L106.303 117.445Z" fill="white"/>
<path d="M97.8664 119.249L97.2119 119.005L95.2723 119.414L95.9346 119.659L97.8664 119.249Z" fill="white"/>
<path d="M98.3 117.854L96.3683 118.272L97.2435 118.595L99.1831 118.185L98.3 117.854Z" fill="white"/>
<path d="M92.2997 118.729L91.5664 118.453L89.6267 118.863L90.36 119.139L92.2997 118.729Z" fill="white"/>
<path d="M96.1475 116.633L96.9123 116.917L99.0491 116.46L98.2685 116.192L96.1475 116.633Z" fill="white"/>
<path d="M93.4666 117.193L94.2551 117.484L96.1869 117.066L95.4221 116.783L93.4666 117.193Z" fill="white"/>
<path d="M95.2171 119.816L94.5469 119.564L92.6151 119.982L93.2853 120.226L95.2171 119.816Z" fill="white"/>
<path d="M93.8609 119.312L92.9857 118.989L91.0539 119.399L91.9212 119.722L93.8609 119.312Z" fill="white"/>
<path d="M95.6429 118.422L93.7111 118.831L94.5784 119.154L96.5181 118.745L95.6429 118.422Z" fill="white"/>
<path d="M103.977 116.649L102.006 117.074L102.928 117.389L104.908 116.972L103.977 116.649Z" fill="white"/>
<path d="M122.798 113.923L122.128 113.726L120.196 114.136L120.874 114.341L122.798 113.923Z" fill="white"/>
<path d="M117.626 113.758L115.694 114.167L116.687 114.474L118.627 114.065L117.626 113.758Z" fill="white"/>
<path d="M109.26 116.814L108.574 116.594L106.39 117.059L107.052 117.287L109.26 116.814Z" fill="white"/>
<path d="M120.322 113.182L118.414 113.584L119.423 113.891L121.339 113.49L120.322 113.182Z" fill="white"/>
<path d="M119.124 111.449L118.201 111.181L116.325 111.567L117.239 111.843L119.124 111.449Z" fill="white"/>
<path d="M120.346 112.773L122.27 112.371L121.41 112.119L119.502 112.521L120.346 112.773Z" fill="white"/>
<path d="M118.722 112.284L120.614 111.882L119.928 111.685L118.028 112.079L118.722 112.284Z" fill="white"/>
<path d="M120.078 114.506L119.408 114.301L117.452 114.711L118.122 114.924L120.078 114.506Z" fill="white"/>
<path d="M111.917 116.247L111.239 116.034L109.347 116.428L110.033 116.657L111.917 116.247Z" fill="white"/>
<path d="M109.52 115.475L107.628 115.877L108.59 116.192L110.482 115.79L109.52 115.475Z" fill="white"/>
<path d="M112.209 114.908L110.293 115.31L111.263 115.625L113.187 115.215L112.209 114.908Z" fill="white"/>
<path d="M114.905 114.333L112.989 114.742L113.967 115.05L115.899 114.64L114.905 114.333Z" fill="white"/>
<path d="M117.342 115.089L116.664 114.884L114.732 115.294L115.41 115.507L117.342 115.089Z" fill="white"/>
<path d="M114.63 115.672L113.951 115.459L112.012 115.869L112.69 116.082L114.63 115.672Z" fill="white"/>
</svg>
